<svg width="19" height="19" viewBox="0 0 19 19" fill="none" xmlns="http://www.w3.org/2000/svg">
<path d="M17.07 1.5C16.41 1.01 15.46 1.48 15.46 2.31V2.41C15.46 3.58 14.62 4.66 13.45 4.78C12.1 4.92 10.96 3.86 10.96 2.54V1.5C10.96 0.95 10.51 0.5 9.96 0.5H9.04C8.49 0.5 8.04 0.95 8.04 1.5V2.54C8.04 3.33 7.63 4.03 7.01 4.42C6.92 4.48 6.82 4.53 6.72 4.58C6.63 4.63 6.53 4.67 6.42 4.7C6.3 4.74 6.17 4.77 6.03 4.78C5.87 4.8 5.71 4.8 5.55 4.78C5.41 4.77 5.28 4.74 5.16 4.7C5.06 4.67 4.96 4.63 4.86 4.58C4.76 4.53 4.66 4.48 4.57 4.42C3.94 3.98 3.54 3.22 3.54 2.41V2.31C3.54 1.54 2.72 1.08 2.07 1.41C2.06 1.42 2.05 1.42 2.04 1.43C2 1.45 1.97 1.47 1.93 1.5C1.9 1.53 1.86 1.55 1.83 1.58C1.55 1.8 1.3 2.05 1.09 2.32C0.98 2.44 0.89 2.57 0.81 2.7C0.8 2.71 0.79 2.72 0.78 2.74C0.69 2.87 0.61 3.02 0.54 3.16C0.52 3.18 0.51 3.19 0.51 3.21C0.45 3.33 0.39 3.45 0.35 3.58C0.32 3.63 0.31 3.67 0.29 3.72C0.23 3.87 0.19 4.02 0.15 4.17C0.11 4.31 0.0799999 4.46 0.0599999 4.61C0.0399999 4.72 0.03 4.83 0.02 4.95C0.00999998 5.09 0 5.23 0 5.37V14.13C0 16.82 2.18 19 4.87 19H14.13C16.82 19 19 16.82 19 14.13V5.37C19 3.78 18.24 2.39 17.07 1.5ZM9.5 15.25C7.95 15.25 7 14.48 7 13.24C7 12.56 7.35 11.97 7.96 11.62C7.52 11.31 7.23 10.85 7.23 10.22C7.23 8.92 8.27 8.25 9.5 8.25C10.73 8.25 11.76 8.92 11.76 10.22C11.76 10.85 11.48 11.31 11.03 11.62C11.65 11.97 12 12.56 12 13.24C12 14.48 11.04 15.25 9.5 15.25Z" fill="#6347EB"/>
</svg>
