<svg width="91" height="92" viewBox="0 0 91 92" fill="none" xmlns="http://www.w3.org/2000/svg">
<g filter="url(#filter0_f_1_243)">
<path d="M45.3095 66.3695C56.5238 66.3695 65.6147 57.2786 65.6147 46.0643C65.6147 34.85 56.5238 25.759 45.3095 25.759C34.0952 25.759 25.0042 34.85 25.0042 46.0643C25.0042 57.2786 34.0952 66.3695 45.3095 66.3695Z" fill="#5799EF" fill-opacity="0.39"/>
</g>
<path d="M42.3053 60.6105C53.5195 60.6105 62.6105 51.5195 62.6105 40.3053C62.6105 29.091 53.5195 20 42.3053 20C31.091 20 22 29.091 22 40.3053C22 51.5195 31.091 60.6105 42.3053 60.6105Z" fill="url(#paint0_linear_1_243)"/>
<g filter="url(#filter1_f_1_243)">
<path d="M57.8092 40.8745C57.8092 49.4374 50.8676 56.3789 42.3048 56.3789C33.7419 56.3789 26.8003 49.4374 26.8003 40.8745C26.8003 32.3116 33.7419 25.3701 42.3048 25.3701C50.8676 25.3701 57.8092 32.3116 57.8092 40.8745Z" stroke="url(#paint1_linear_1_243)" stroke-width="2"/>
</g>
<g filter="url(#filter2_f_1_243)">
<path d="M57.8092 40.8745C57.8092 49.4374 50.8676 56.3789 42.3048 56.3789C33.7419 56.3789 26.8003 49.4374 26.8003 40.8745C26.8003 32.3116 33.7419 25.3701 42.3048 25.3701C50.8676 25.3701 57.8092 32.3116 57.8092 40.8745Z" stroke="url(#paint2_linear_1_243)" stroke-width="2"/>
</g>
<g filter="url(#filter3_bd_1_243)">
<path d="M44.2138 36.715V35.1087C44.2138 34.3262 44.7355 34.1408 45.0993 34.1408C45.4631 34.1408 47.3578 34.1408 47.3578 34.1408V30.6948L44.2481 30.6811C40.8021 30.6811 40.0127 33.2484 40.0127 34.8959V36.715H38.022V40.7376H40.0333C40.0333 45.2957 40.0333 50.7941 40.0333 50.7941H44.0559C44.0559 50.7941 44.0559 45.2407 44.0559 40.7376H47.042L47.4058 36.715H44.2138Z" fill="#E0EBFF"/>
<path d="M43.4638 36.715V37.465H44.2138H46.5849L46.3568 39.9876H44.0559H43.3059V40.7376V40.764V40.7904V40.8169V40.8433V40.8698V40.8964V40.9229V40.9494V40.976V41.0026V41.0292V41.0559V41.0826V41.1092V41.1359V41.1627V41.1894V41.2162V41.2429V41.2697V41.2966V41.3234V41.3502V41.3771V41.404V41.4309V41.4578V41.4848V41.5117V41.5387V41.5657V41.5926V41.6197V41.6467V41.6737V41.7008V41.7278V41.7549V41.782V41.8091V41.8362V41.8634V41.8905V41.9177V41.9448V41.972V41.9992V42.0264V42.0536V42.0808V42.108V42.1352V42.1625V42.1897V42.217V42.2443V42.2715V42.2988V42.3261V42.3534V42.3807V42.408V42.4353V42.4626V42.4899V42.5173V42.5446V42.5719V42.5993V42.6266V42.654V42.6813V42.7087V42.736V42.7634V42.7907V42.8181V42.8455V42.8728V42.9002V42.9276V42.9549V42.9823V43.0096V43.037V43.0644V43.0917V43.1191V43.1464V43.1738V43.2012V43.2285V43.2559V43.2832V43.3105V43.3379V43.3652V43.3925V43.4198V43.4472V43.4745V43.5018V43.5291V43.5564V43.5837V43.6109V43.6382V43.6655V43.6927V43.72V43.7472V43.7744V43.8017V43.8289V43.8561V43.8833V43.9105V43.9376V43.9648V43.9919V44.0191V44.0462V44.0733V44.1004V44.1275V44.1546V44.1817V44.2087V44.2357V44.2628V44.2898V44.3168V44.3438V44.3707V44.3977V44.4246V44.4515V44.4784V44.5053V44.5322V44.559V44.5858V44.6127V44.6395V44.6662V44.693V44.7197V44.7464V44.7731V44.7998V44.8265V44.8531V44.8797V44.9063V44.9329V44.9595V44.986V45.0125V45.039V45.0655V45.0919V45.1183V45.1447V45.1711V45.1974V45.2238V45.2501V45.2763V45.3026V45.3288V45.355V45.3812V45.4073V45.4334V45.4595V45.4855V45.5116V45.5376V45.5636V45.5895V45.6154V45.6413V45.6672V45.693V45.7188V45.7445V45.7703V45.796V45.8217V45.8473V45.8729V45.8985V45.924V45.9495V45.975V46.0005V46.0259V46.0512V46.0766V46.1019V46.1272V46.1524V46.1776V46.2028V46.2279V46.253V46.278V46.3031V46.328V46.353V46.3779V46.4028V46.4276V46.4524V46.4771V46.5018V46.5265V46.5511V46.5757V46.6003V46.6248V46.6493V46.6737V46.6981V46.7224V46.7467V46.771V46.7952V46.8194V46.8435V46.8676V46.8916V46.9156V46.9396V46.9635V46.9873V47.0111V47.0349V47.0586V47.0823V47.1059V47.1295V47.153V47.1765V47.2V47.2234V47.2467V47.27V47.2932V47.3164V47.3396V47.3627V47.3857V47.4087V47.4317V47.4546V47.4774V47.5002V47.5229V47.5456V47.5682V47.5908V47.6133V47.6358V47.6582V47.6806V47.7029V47.7252V47.7474V47.7695V47.7916V47.8136V47.8356V47.8575V47.8794V47.9012V47.9229V47.9446V47.9662V47.9878V48.0093V48.0308V48.0522V48.0735V48.0948V48.116V48.1372V48.1583V48.1793V48.2003V48.2212V48.242V48.2628V48.2836V48.3042V48.3248V48.3454V48.3658V48.3862V48.4066V48.4269V48.4471V48.4672V48.4873V48.5073V48.5273V48.5472V48.567V48.5868V48.6064V48.6261V48.6456V48.6651V48.6845V48.7039V48.7231V48.7423V48.7615V48.7805V48.7995V48.8185V48.8373V48.8561V48.8748V48.8935V48.912V48.9305V48.949V48.9673V48.9856V49.0038V49.0219V49.04V49.058V49.0759V49.0937V49.1115V49.1292V49.1468V49.1643V49.1818V49.1992V49.2165V49.2337V49.2509V49.2679V49.2849V49.3018V49.3187V49.3354V49.3521V49.3687V49.3852V49.4017V49.418V49.4343V49.4505V49.4666V49.4826V49.4986V49.5145V49.5302V49.5459V49.5616V49.5771V49.5926V49.6079V49.6232V49.6384V49.6535V49.6686V49.6835V49.6984V49.7131V49.7278V49.7424V49.7569V49.7714V49.7857V49.7999V49.8141V49.8282V49.8422V49.8561V49.8699V49.8836V49.8972V49.9108V49.9242V49.9376V49.9508V49.964V49.9771V49.9901V50.003V50.0158V50.0285V50.0411V50.0441H40.7833V50.0349V50.0223V50.0096V49.9968V49.9839V49.9709V49.9578V49.9447V49.9314V49.9181V49.9046V49.8911V49.8775V49.8638V49.85V49.8361V49.8221V49.8081V49.7939V49.7797V49.7654V49.751V49.7365V49.7219V49.7072V49.6925V49.6776V49.6627V49.6477V49.6326V49.6174V49.6021V49.5868V49.5714V49.5558V49.5402V49.5246V49.5088V49.493V49.477V49.461V49.4449V49.4288V49.4125V49.3962V49.3798V49.3633V49.3467V49.33V49.3133V49.2965V49.2796V49.2627V49.2456V49.2285V49.2113V49.194V49.1767V49.1593V49.1418V49.1242V49.1065V49.0888V49.071V49.0531V49.0352V49.0171V48.999V48.9809V48.9626V48.9443V48.9259V48.9074V48.8889V48.8703V48.8516V48.8328V48.814V48.7951V48.7762V48.7571V48.738V48.7189V48.6996V48.6803V48.6609V48.6415V48.622V48.6024V48.5827V48.563V48.5432V48.5234V48.5035V48.4835V48.4634V48.4433V48.4231V48.4029V48.3826V48.3622V48.3418V48.3213V48.3007V48.2801V48.2594V48.2386V48.2178V48.1969V48.176V48.155V48.1339V48.1128V48.0916V48.0704V48.0491V48.0277V48.0063V47.9848V47.9633V47.9417V47.92V47.8983V47.8766V47.8547V47.8328V47.8109V47.7889V47.7668V47.7447V47.7226V47.7003V47.6781V47.6557V47.6334V47.6109V47.5884V47.5659V47.5433V47.5206V47.4979V47.4751V47.4523V47.4295V47.4066V47.3836V47.3606V47.3375V47.3144V47.2912V47.268V47.2447V47.2214V47.198V47.1746V47.1512V47.1277V47.1041V47.0805V47.0568V47.0331V47.0094V46.9856V46.9618V46.9379V46.9139V46.89V46.8659V46.8419V46.8178V46.7936V46.7694V46.7452V46.7209V46.6965V46.6722V46.6478V46.6233V46.5988V46.5743V46.5497V46.5251V46.5004V46.4757V46.451V46.4262V46.4014V46.3765V46.3516V46.3267V46.3017V46.2767V46.2516V46.2265V46.2014V46.1762V46.151V46.1258V46.1005V46.0752V46.0499V46.0245V45.9991V45.9736V45.9481V45.9226V45.8971V45.8715V45.8459V45.8202V45.7945V45.7688V45.7431V45.7173V45.6915V45.6656V45.6398V45.6139V45.5879V45.562V45.536V45.5099V45.4839V45.4578V45.4317V45.4056V45.3794V45.3532V45.327V45.3007V45.2745V45.2482V45.2218V45.1955V45.1691V45.1427V45.1163V45.0898V45.0633V45.0368V45.0103V44.9837V44.9572V44.9306V44.904V44.8773V44.8506V44.824V44.7972V44.7705V44.7438V44.717V44.6902V44.6634V44.6366V44.6097V44.5828V44.5559V44.529V44.5021V44.4752V44.4482V44.4212V44.3942V44.3672V44.3402V44.3131V44.2861V44.259V44.2319V44.2048V44.1776V44.1505V44.1233V44.0962V44.069V44.0418V44.0146V43.9873V43.9601V43.9329V43.9056V43.8783V43.851V43.8237V43.7964V43.7691V43.7418V43.7145V43.6871V43.6597V43.6324V43.605V43.5776V43.5502V43.5228V43.4954V43.468V43.4406V43.4131V43.3857V43.3583V43.3308V43.3034V43.2759V43.2484V43.221V43.1935V43.166V43.1385V43.111V43.0835V43.056V43.0285V43.001V42.9735V42.946V42.9185V42.891V42.8635V42.836V42.8085V42.781V42.7535V42.7259V42.6984V42.6709V42.6434V42.6159V42.5884V42.5609V42.5334V42.5059V42.4784V42.4509V42.4234V42.3959V42.3684V42.341V42.3135V42.286V42.2586V42.2311V42.2036V42.1762V42.1488V42.1213V42.0939V42.0665V42.0391V42.0117V41.9843V41.9569V41.9295V41.9021V41.8748V41.8474V41.8201V41.7927V41.7654V41.7381V41.7108V41.6835V41.6562V41.629V41.6017V41.5745V41.5472V41.52V41.4928V41.4656V41.4384V41.4113V41.3841V41.357V41.3299V41.3028V41.2757V41.2486V41.2216V41.1945V41.1675V41.1405V41.1135V41.0865V41.0596V41.0326V41.0057V40.9788V40.9519V40.9251V40.8982V40.8714V40.8446V40.8178V40.7911V40.7643V40.7376V39.9876H40.0333H38.772V37.465H40.0127H40.7627V36.715V34.8959C40.7627 34.1708 40.9397 33.2935 41.4408 32.6172C41.9132 31.9795 42.7375 31.4315 44.2465 31.4311C44.2471 31.4311 44.2476 31.4311 44.2481 31.4311L46.6078 31.4415V33.3908H46.6034H46.5976H46.5917H46.5859H46.5801H46.5743H46.5684H46.5625H46.5567H46.5508H46.5449H46.539H46.5331H46.5272H46.5213H46.5154H46.5094H46.5035H46.4975H46.4916H46.4856H46.4796H46.4737H46.4677H46.4617H46.4557H46.4497H46.4437H46.4376H46.4316H46.4256H46.4195H46.4135H46.4074H46.4014H46.3953H46.3893H46.3832H46.3771H46.3711H46.365H46.3589H46.3528H46.3467H46.3406H46.3345H46.3284H46.3223H46.3162H46.3101H46.304H46.2978H46.2917H46.2856H46.2795H46.2733H46.2672H46.2611H46.2549H46.2488H46.2427H46.2365H46.2304H46.2243H46.2181H46.212H46.2058H46.1997H46.1936H46.1874H46.1813H46.1751H46.169H46.1629H46.1567H46.1506H46.1445H46.1383H46.1322H46.1261H46.1199H46.1138H46.1077H46.1016H46.0954H46.0893H46.0832H46.0771H46.071H46.0649H46.0588H46.0527H46.0466H46.0405H46.0344H46.0283H46.0222H46.0162H46.0101H46.004H45.998H45.9919H45.9859H45.9798H45.9738H45.9678H45.9617H45.9557H45.9497H45.9437H45.9377H45.9317H45.9257H45.9197H45.9137H45.9078H45.9018H45.8958H45.8899H45.884H45.878H45.8721H45.8662H45.8603H45.8544H45.8485H45.8426H45.8368H45.8309H45.825H45.8192H45.8134H45.8075H45.8017H45.7959H45.7901H45.7843H45.7786H45.7728H45.7671H45.7613H45.7556H45.7499H45.7442H45.7385H45.7328H45.7271H45.7215H45.7158H45.7102H45.7046H45.699H45.6934H45.6878H45.6822H45.6766H45.6711H45.6656H45.6601H45.6546H45.6491H45.6436H45.6381H45.6327H45.6273H45.6218H45.6164H45.6111H45.6057H45.6003H45.595H45.5897H45.5844H45.5791H45.5738H45.5685H45.5633H45.5581H45.5529H45.5477H45.5425H45.5373H45.5322H45.5271H45.522H45.5169H45.5118H45.5068H45.5017H45.4967H45.4917H45.4868H45.4818H45.4769H45.4719H45.467H45.4622H45.4573H45.4525H45.4476H45.4428H45.4381H45.4333H45.4286H45.4239H45.4192H45.4145H45.4098H45.4052H45.4006H45.396H45.3914H45.3869H45.3824H45.3779H45.3734H45.3689H45.3645H45.3601H45.3557H45.3513H45.347H45.3427H45.3384H45.3341H45.3299H45.3256H45.3214H45.3173H45.3131H45.309H45.3049H45.3008H45.2968H45.2928H45.2888H45.2848H45.2808H45.2769H45.273H45.2692H45.2653H45.2615H45.2577H45.254H45.2502H45.2465H45.2428H45.2392H45.2356H45.232H45.2284H45.2249H45.2214H45.2179H45.2144H45.211H45.2076H45.2042H45.2009H45.1976H45.1943H45.1911H45.1878H45.1846H45.1815H45.1784H45.1753H45.1722H45.1692H45.1661H45.1632H45.1602H45.1573H45.1544H45.1516H45.1488H45.146H45.1432H45.1405H45.1378H45.1352H45.1325H45.1299H45.1274H45.1249H45.1224H45.1199H45.1175H45.1151H45.1127H45.1104H45.1081H45.1059H45.1037H45.1015H45.0993C44.8077 33.3908 44.3968 33.4627 44.0447 33.7512C43.6643 34.063 43.4638 34.5356 43.4638 35.1087V36.715Z" stroke="url(#paint3_linear_1_243)" stroke-width="1.5"/>
</g>
<defs>
<filter id="filter0_f_1_243" x="0.00421143" y="0.759003" width="90.6105" height="90.6105" filterUnits="userSpaceOnUse" color-interpolation-filters="sRGB">
<feFlood flood-opacity="0" result="BackgroundImageFix"/>
<feBlend mode="normal" in="SourceGraphic" in2="BackgroundImageFix" result="shape"/>
<feGaussianBlur stdDeviation="12.5" result="effect1_foregroundBlur_1_243"/>
</filter>
<filter id="filter1_f_1_243" x="15.8003" y="14.3701" width="53.0089" height="53.0089" filterUnits="userSpaceOnUse" color-interpolation-filters="sRGB">
<feFlood flood-opacity="0" result="BackgroundImageFix"/>
<feBlend mode="normal" in="SourceGraphic" in2="BackgroundImageFix" result="shape"/>
<feGaussianBlur stdDeviation="5" result="effect1_foregroundBlur_1_243"/>
</filter>
<filter id="filter2_f_1_243" x="7.80032" y="6.37006" width="69.0089" height="69.0089" filterUnits="userSpaceOnUse" color-interpolation-filters="sRGB">
<feFlood flood-opacity="0" result="BackgroundImageFix"/>
<feBlend mode="normal" in="SourceGraphic" in2="BackgroundImageFix" result="shape"/>
<feGaussianBlur stdDeviation="9" result="effect1_foregroundBlur_1_243"/>
</filter>
<filter id="filter3_bd_1_243" x="33.022" y="26.6811" width="18.3838" height="29.1131" filterUnits="userSpaceOnUse" color-interpolation-filters="sRGB">
<feFlood flood-opacity="0" result="BackgroundImageFix"/>
<feGaussianBlur in="BackgroundImage" stdDeviation="2"/>
<feComposite in2="SourceAlpha" operator="in" result="effect1_backgroundBlur_1_243"/>
<feColorMatrix in="SourceAlpha" type="matrix" values="0 0 0 0 0 0 0 0 0 0 0 0 0 0 0 0 0 0 127 0" result="hardAlpha"/>
<feOffset dx="-2" dy="2"/>
<feGaussianBlur stdDeviation="1.5"/>
<feComposite in2="hardAlpha" operator="out"/>
<feColorMatrix type="matrix" values="0 0 0 0 0 0 0 0 0 0 0 0 0 0 0 0 0 0 0.19 0"/>
<feBlend mode="normal" in2="effect1_backgroundBlur_1_243" result="effect2_dropShadow_1_243"/>
<feBlend mode="normal" in="SourceGraphic" in2="effect2_dropShadow_1_243" result="shape"/>
</filter>
<linearGradient id="paint0_linear_1_243" x1="49.0345" y1="19.2203" x2="34.5693" y2="64.5188" gradientUnits="userSpaceOnUse">
<stop stop-color="#243FE1"/>
<stop offset="0.1537" stop-color="#2F53E5"/>
<stop offset="0.4688" stop-color="#4C87ED"/>
<stop offset="0.9138" stop-color="#7BDAFB"/>
<stop offset="1" stop-color="#84EAFE"/>
</linearGradient>
<linearGradient id="paint1_linear_1_243" x1="52.2733" y1="26.2725" x2="42.3048" y2="57.3789" gradientUnits="userSpaceOnUse">
<stop stop-color="white"/>
<stop offset="1" stop-color="white" stop-opacity="0"/>
</linearGradient>
<linearGradient id="paint2_linear_1_243" x1="52.2733" y1="26.2725" x2="42.3048" y2="57.3789" gradientUnits="userSpaceOnUse">
<stop stop-color="white"/>
<stop offset="1" stop-color="white" stop-opacity="0"/>
</linearGradient>
<linearGradient id="paint3_linear_1_243" x1="38.022" y1="35.4335" x2="44.0995" y2="39.3535" gradientUnits="userSpaceOnUse">
<stop stop-color="white"/>
<stop offset="1" stop-color="white" stop-opacity="0"/>
</linearGradient>
</defs>
</svg>
