<svg width="202" height="2" viewBox="0 0 202 2" fill="none" xmlns="http://www.w3.org/2000/svg">
<path fill-rule="evenodd" clip-rule="evenodd" d="M0 1C0 0.447715 0.482768 0 1.07829 0H3.57633C4.17186 0 4.65463 0.447715 4.65463 1C4.65463 1.55228 4.17186 2 3.57633 2H1.07829C0.482768 2 0 1.55228 0 1ZM7.49413 1C7.49413 0.447715 7.9769 0 8.57242 0H13.5685C14.164 0 14.6468 0.447715 14.6468 1C14.6468 1.55228 14.164 2 13.5685 2H8.57242C7.9769 2 7.49413 1.55228 7.49413 1ZM17.4863 1C17.4863 0.447715 17.9691 0 18.5646 0H23.5607C24.1562 0 24.639 0.447715 24.639 1C24.639 1.55228 24.1562 2 23.5607 2H18.5646C17.9691 2 17.4863 1.55228 17.4863 1ZM27.4785 1C27.4785 0.447715 27.9612 0 28.5568 0H33.5528C34.1484 0 34.6311 0.447715 34.6311 1C34.6311 1.55228 34.1484 2 33.5528 2H28.5568C27.9612 2 27.4785 1.55228 27.4785 1ZM37.4706 1C37.4706 0.447715 37.9534 0 38.5489 0H43.545C44.1405 0 44.6233 0.447715 44.6233 1C44.6233 1.55228 44.1405 2 43.545 2H38.5489C37.9534 2 37.4706 1.55228 37.4706 1ZM47.4628 1C47.4628 0.447715 47.9456 0 48.5411 0H53.5372C54.1327 0 54.6155 0.447715 54.6155 1C54.6155 1.55228 54.1327 2 53.5372 2H48.5411C47.9456 2 47.4628 1.55228 47.4628 1ZM57.455 1C57.455 0.447715 57.9378 0 58.5333 0H63.5294C64.1249 0 64.6076 0.447715 64.6076 1C64.6076 1.55228 64.1249 2 63.5294 2H58.5333C57.9378 2 57.455 1.55228 57.455 1ZM67.4472 1C67.4472 0.447715 67.9299 0 68.5254 0H73.5215C74.1171 0 74.5998 0.447715 74.5998 1C74.5998 1.55228 74.1171 2 73.5215 2H68.5254C67.9299 2 67.4472 1.55228 67.4472 1ZM77.4393 1C77.4393 0.447715 77.9221 0 78.5176 0H83.5137C84.1092 0 84.592 0.447715 84.592 1C84.592 1.55228 84.1092 2 83.5137 2H78.5176C77.9221 2 77.4393 1.55228 77.4393 1ZM87.4315 1C87.4315 0.447715 87.9143 0 88.5098 0H93.5059C94.1014 0 94.5842 0.447715 94.5842 1C94.5842 1.55228 94.1014 2 93.5059 2H88.5098C87.9143 2 87.4315 1.55228 87.4315 1ZM97.4237 1C97.4237 0.447715 97.9064 0 98.5019 0H103.498C104.094 0 104.576 0.447715 104.576 1C104.576 1.55228 104.094 2 103.498 2H98.5019C97.9064 2 97.4237 1.55228 97.4237 1ZM107.416 1C107.416 0.447715 107.899 0 108.494 0H113.49C114.086 0 114.568 0.447715 114.568 1C114.568 1.55228 114.086 2 113.49 2H108.494C107.899 2 107.416 1.55228 107.416 1ZM117.408 1C117.408 0.447715 117.891 0 118.486 0H123.482C124.078 0 124.561 0.447715 124.561 1C124.561 1.55228 124.078 2 123.482 2H118.486C117.891 2 117.408 1.55228 117.408 1ZM127.4 1C127.4 0.447715 127.883 0 128.478 0H133.475C134.07 0 134.553 0.447715 134.553 1C134.553 1.55228 134.07 2 133.475 2H128.478C127.883 2 127.4 1.55228 127.4 1ZM137.392 1C137.392 0.447715 137.875 0 138.471 0H143.467C144.062 0 144.545 0.447715 144.545 1C144.545 1.55228 144.062 2 143.467 2H138.471C137.875 2 137.392 1.55228 137.392 1ZM147.384 1C147.384 0.447715 147.867 0 148.463 0H153.459C154.054 0 154.537 0.447715 154.537 1C154.537 1.55228 154.054 2 153.459 2H148.463C147.867 2 147.384 1.55228 147.384 1ZM157.377 1C157.377 0.447715 157.859 0 158.455 0H163.451C164.047 0 164.529 0.447715 164.529 1C164.529 1.55228 164.047 2 163.451 2H158.455C157.859 2 157.377 1.55228 157.377 1ZM167.369 1C167.369 0.447715 167.852 0 168.447 0H173.443C174.039 0 174.521 0.447715 174.521 1C174.521 1.55228 174.039 2 173.443 2H168.447C167.852 2 167.369 1.55228 167.369 1ZM177.361 1C177.361 0.447715 177.844 0 178.439 0H183.435C184.031 0 184.514 0.447715 184.514 1C184.514 1.55228 184.031 2 183.435 2H178.439C177.844 2 177.361 1.55228 177.361 1ZM187.353 1C187.353 0.447715 187.836 0 188.431 0H193.428C194.023 0 194.506 0.447715 194.506 1C194.506 1.55228 194.023 2 193.428 2H188.431C187.836 2 187.353 1.55228 187.353 1ZM197.345 1C197.345 0.447715 197.828 0 198.424 0H200.922C201.517 0 202 0.447715 202 1C202 1.55228 201.517 2 200.922 2H198.424C197.828 2 197.345 1.55228 197.345 1Z" fill="#666666" fill-opacity="0.2"/>
</svg>
