<svg width="55" height="18" viewBox="0 0 55 18" fill="none" xmlns="http://www.w3.org/2000/svg">
<path d="M55.5404 1.34665L54.635 5.28909C54.6147 5.3809 54.5625 5.4632 54.487 5.52225C54.4116 5.58129 54.3175 5.61351 54.2204 5.61352L52.9326 5.61352C52.8744 5.61356 52.8168 5.60202 52.7634 5.57962C52.71 5.55722 52.6619 5.52443 52.6222 5.48329C52.5824 5.44216 52.5518 5.39355 52.5323 5.3405C52.5128 5.28745 52.5048 5.23108 52.5087 5.17489V5.10157C52.5704 3.81619 51.732 2.85524 49.8325 2.85589C46.6761 2.85589 44.3795 5.36241 44.079 8.65405C43.7684 12.0534 46.2253 14.0285 49.6246 14.0279C50.9455 14.0316 52.2593 13.8419 53.5215 13.4653C53.5918 13.4439 53.6666 13.4404 53.7387 13.4553C53.8107 13.4702 53.8775 13.5029 53.9326 13.5502C53.9877 13.5975 54.0291 13.6579 54.0529 13.7253C54.0767 13.7928 54.0819 13.8651 54.0682 13.9351L53.6657 15.9718C53.6493 16.0568 53.6094 16.136 53.5504 16.201C53.4914 16.2659 53.4154 16.3143 53.3304 16.341C52.6335 16.5558 50.6776 17.06 47.6828 17.0606C40.5684 17.0606 37.6815 13.1026 38.1283 9.06737C38.5293 5.47402 40.9869 0.178713 50.679 0.178713C52.2035 0.177913 53.7209 0.378978 55.189 0.776308C55.3124 0.808988 55.418 0.886643 55.4835 0.99298C55.549 1.09932 55.5694 1.22607 55.5404 1.34665ZM15.09 0.784744L14.8545 1.81318C14.8301 1.92378 14.8493 2.03922 14.9082 2.1369C14.9671 2.23458 15.0616 2.30748 15.1731 2.34135C15.583 2.49383 15.6735 2.8747 15.3167 3.15955L9.36393 7.9455L10.3861 3.43596C10.5605 2.74364 11.1286 2.45879 11.4881 2.34589L11.5465 2.32837C11.6241 2.30527 11.694 2.26264 11.7491 2.20484C11.8041 2.14705 11.8423 2.07615 11.8597 1.9994L12.1039 0.931385C12.1173 0.871934 12.1168 0.810315 12.1024 0.751083C12.0879 0.69185 12.0599 0.636518 12.0203 0.589176C11.9808 0.541834 11.9308 0.503692 11.8739 0.47757C11.8171 0.451447 11.755 0.438011 11.692 0.438255L4.01753 0.438255C3.9123 0.43821 3.8102 0.472913 3.72812 0.536625C3.64603 0.600337 3.58889 0.689241 3.56613 0.788637L3.31796 1.87093C3.29414 1.97759 3.31183 2.089 3.36765 2.18382C3.42346 2.27865 3.51348 2.35021 3.62046 2.38482L3.69625 2.41012C4.17784 2.59245 4.73589 3.00318 4.50113 4.08287L2.66735 12.1864C2.18845 14.3997 1.41308 14.8513 0.673267 14.9343H0.649791C0.553284 14.9447 0.462572 14.9841 0.390393 15.047C0.318214 15.1098 0.268193 15.1929 0.247352 15.2847L0.00991357 16.3229C-0.00399149 16.3854 -0.00326033 16.4502 0.0120535 16.5124C0.0273673 16.5746 0.0568759 16.6327 0.0984181 16.6825C0.13996 16.7323 0.192484 16.7724 0.252142 16.8C0.3118 16.8276 0.377082 16.8419 0.443206 16.8419H8.51211C8.60793 16.8418 8.70085 16.8101 8.77558 16.7521C8.85031 16.6941 8.90239 16.6132 8.92326 16.5227L9.20162 15.3081C9.22363 15.2122 9.2095 15.112 9.16177 15.0253C9.11405 14.9387 9.03588 14.8714 8.94137 14.8357L8.88906 14.8156C8.48058 14.6553 7.9232 14.314 8.0654 13.6703L9.00442 9.52676C12.2166 15.212 13.279 16.8478 17.137 16.8471L20.6188 16.8471C20.7142 16.8472 20.8068 16.8158 20.8813 16.7581C20.9558 16.7004 21.0077 16.6199 21.0286 16.5299L21.2721 15.4774C21.287 15.4143 21.2873 15.3487 21.2728 15.2854C21.2583 15.2222 21.2295 15.1628 21.1884 15.1117C21.1474 15.0605 21.095 15.0188 21.0353 14.9896C20.9755 14.9604 20.9098 14.9444 20.8428 14.9428C19.9709 14.9298 19.5443 14.7345 18.6777 13.6567L14.2066 7.8034L20.0165 3.13165C20.7959 2.54184 21.747 2.37574 22.2735 2.30825L22.3258 2.30306C22.4156 2.29494 22.5004 2.25955 22.5681 2.20198C22.6358 2.14441 22.6829 2.06759 22.7028 1.98253L22.9402 0.944362C22.9549 0.883802 22.9552 0.820811 22.9411 0.760115C22.9271 0.699419 22.899 0.642592 22.859 0.593898C22.819 0.545203 22.7681 0.505904 22.7101 0.478949C22.6522 0.451993 22.5887 0.438081 22.5244 0.438255L15.5353 0.438255C15.4314 0.438157 15.3305 0.472474 15.2495 0.535505C15.1685 0.598537 15.1122 0.686487 15.09 0.784744ZM36.5856 5.28585H37.9445C38.0408 5.28597 38.1343 5.25426 38.2094 5.19597C38.2845 5.13768 38.3368 5.0563 38.3576 4.96531L39.2819 0.935278C39.2952 0.875429 39.2945 0.813462 39.2799 0.753909C39.2652 0.694356 39.237 0.638724 39.1973 0.591081C39.1575 0.543438 39.1073 0.504989 39.0502 0.478548C38.9931 0.452106 38.9307 0.438339 38.8674 0.438255L24.5741 0.438255C24.4687 0.438214 24.3664 0.472985 24.2842 0.536818C24.202 0.60065 24.1448 0.689717 24.122 0.789286L23.8766 1.86574C23.8532 1.96762 23.8691 2.07427 23.9213 2.16559C23.9736 2.2569 24.0586 2.32657 24.1603 2.36146L24.2079 2.37833C24.6774 2.55222 25.3334 2.9928 25.0483 4.07509L22.246 16.3495C22.2323 16.4092 22.2327 16.4711 22.2471 16.5306C22.2615 16.5901 22.2895 16.6458 22.3291 16.6934C22.3687 16.7411 22.4189 16.7795 22.4759 16.8059C22.5329 16.8323 22.5953 16.8459 22.6585 16.8458H29.0868C29.1829 16.8459 29.2762 16.8142 29.3511 16.756C29.4261 16.6979 29.4784 16.6167 29.4993 16.526L29.779 15.3009C29.7991 15.2133 29.7873 15.1217 29.7457 15.0415C29.704 14.9614 29.635 14.8976 29.5503 14.861L29.4879 14.8331C29.0801 14.6384 28.4731 14.1953 28.6763 13.3355C28.6991 13.2207 29.3095 10.5604 29.3095 10.5604H34.7759C34.8724 10.5604 34.966 10.5286 35.0412 10.4702C35.1165 10.4118 35.1689 10.3303 35.1898 10.2392L35.7042 7.99741C35.718 7.93738 35.7176 7.87513 35.7032 7.81525C35.6888 7.75537 35.6606 7.69939 35.6208 7.65143C35.5811 7.60348 35.5306 7.56478 35.4733 7.53819C35.416 7.5116 35.3533 7.49779 35.2897 7.49779L30.0077 7.49779L30.993 3.15047L34.682 3.14657C35.8739 3.14657 36.2375 3.74871 36.1684 4.7752C36.1684 4.7752 36.1684 4.78883 36.163 4.83035C36.1568 4.88771 36.1631 4.94568 36.1815 5.00053C36.1999 5.05538 36.23 5.10589 36.2698 5.14881C36.3096 5.19172 36.3583 5.22609 36.4127 5.2497C36.4671 5.2733 36.526 5.28562 36.5856 5.28585Z" fill="#E4002B"/>
</svg>
