<svg width="82" height="27" viewBox="0 0 82 27" fill="none" xmlns="http://www.w3.org/2000/svg">
<path d="M82.8058 1.8L81.4558 7.876C81.4255 8.01749 81.3477 8.14433 81.2352 8.23533C81.1227 8.32633 80.9824 8.37599 80.8378 8.376H78.9178C78.831 8.37606 78.7451 8.35828 78.6655 8.32375C78.5858 8.28923 78.5142 8.2387 78.4549 8.1753C78.3956 8.1119 78.35 8.03699 78.3209 7.95523C78.2918 7.87346 78.2799 7.78659 78.2858 7.7V7.587C78.3778 5.606 77.1278 4.125 74.2958 4.126C69.5898 4.126 66.1658 7.989 65.7178 13.062C65.2548 18.301 68.9178 21.345 73.9858 21.344C75.9551 21.3497 77.9139 21.0574 79.7958 20.477C79.9005 20.4439 80.012 20.4386 80.1195 20.4615C80.2269 20.4845 80.3265 20.5349 80.4086 20.6078C80.4907 20.6808 80.5525 20.7738 80.588 20.8777C80.6234 20.9817 80.6312 21.0931 80.6108 21.201L80.0108 24.34C79.9862 24.471 79.9268 24.593 79.8388 24.6931C79.7508 24.7932 79.6375 24.8678 79.5108 24.909C78.4718 25.24 75.5558 26.017 71.0908 26.018C60.4838 26.018 56.1798 19.918 56.8458 13.699C57.4438 8.161 61.1078 3.66602e-06 75.5578 3.66602e-06C77.8306 -0.00122949 80.0929 0.308646 82.2818 0.921003C82.4658 0.971369 82.6232 1.09105 82.7208 1.25493C82.8186 1.41882 82.849 1.61417 82.8058 1.8ZM22.4978 0.934003L22.1468 2.519C22.1104 2.68947 22.1389 2.86737 22.2268 3.01792C22.3146 3.16846 22.4555 3.28082 22.6218 3.333C23.2328 3.568 23.3678 4.155 22.8358 4.594L13.9608 11.97L15.4848 5.02C15.7448 3.953 16.5918 3.514 17.1278 3.34L17.2148 3.313C17.3305 3.2774 17.4348 3.21171 17.5168 3.12263C17.5989 3.03355 17.6558 2.92429 17.6818 2.806L18.0458 1.16C18.0659 1.06838 18.0651 0.973414 18.0435 0.882126C18.022 0.790838 17.9802 0.705562 17.9212 0.6326C17.8623 0.559637 17.7877 0.500854 17.703 0.460594C17.6183 0.420334 17.5256 0.399627 17.4318 0.400003H5.98978C5.83288 0.399934 5.68066 0.453417 5.55828 0.551609C5.43591 0.6498 5.35071 0.786817 5.31678 0.940003L4.94678 2.608C4.91126 2.77238 4.93764 2.94409 5.02085 3.09023C5.10407 3.23637 5.23829 3.34667 5.39778 3.4L5.51078 3.439C6.22878 3.72 7.06078 4.353 6.71078 6.017L3.97678 18.506C3.26278 21.917 2.10678 22.613 1.00378 22.741H0.96878C0.824896 22.757 0.689653 22.8178 0.58204 22.9146C0.474428 23.0115 0.399851 23.1396 0.36878 23.281L0.0147802 24.881C-0.00595095 24.9774 -0.00486086 25.0772 0.0179707 25.1731C0.0408022 25.269 0.0847969 25.3586 0.146732 25.4353C0.208668 25.512 0.286976 25.5738 0.375921 25.6164C0.464866 25.6589 0.562195 25.681 0.66078 25.681H12.6908C12.8336 25.6808 12.9722 25.632 13.0836 25.5425C13.195 25.4531 13.2727 25.3284 13.3038 25.189L13.7188 23.317C13.7516 23.1693 13.7305 23.0148 13.6594 22.8813C13.5882 22.7478 13.4717 22.6441 13.3308 22.589L13.2528 22.558C12.6438 22.311 11.8128 21.785 12.0248 20.793L13.4248 14.407C18.2138 23.169 19.7978 25.69 25.5498 25.689H30.7408C30.883 25.689 31.021 25.6406 31.1321 25.5517C31.2432 25.4629 31.3206 25.3388 31.3518 25.2L31.7148 23.578C31.737 23.4807 31.7374 23.3796 31.7158 23.2821C31.6942 23.1847 31.6513 23.0932 31.59 23.0143C31.5288 22.9355 31.4508 22.8712 31.3617 22.8262C31.2726 22.7812 31.1746 22.7565 31.0748 22.754C29.7748 22.734 29.1388 22.433 27.8468 20.772L21.1808 11.751L29.8428 4.551C31.0048 3.642 32.4228 3.386 33.2078 3.282L33.2858 3.274C33.4196 3.26148 33.546 3.20695 33.6469 3.11822C33.7479 3.02949 33.8182 2.9111 33.8478 2.78L34.2018 1.18C34.2237 1.08667 34.2241 0.98959 34.2032 0.896046C34.1822 0.802502 34.1403 0.714923 34.0806 0.639876C34.021 0.564829 33.9451 0.504263 33.8587 0.46272C33.7723 0.421177 33.6776 0.399735 33.5818 0.400003H23.1618C23.0068 0.399852 22.8564 0.452741 22.7356 0.549883C22.6148 0.647025 22.5309 0.782572 22.4978 0.934003ZM54.5458 7.871H56.5718C56.7154 7.87119 56.8547 7.82232 56.9668 7.73248C57.0788 7.64264 57.1568 7.51722 57.1878 7.377L58.5658 1.166C58.5856 1.07377 58.5845 0.978263 58.5627 0.886482C58.5409 0.794701 58.4988 0.708961 58.4395 0.635535C58.3803 0.562109 58.3054 0.502853 58.2203 0.462101C58.1352 0.42135 58.0421 0.400133 57.9478 0.400003H36.6378C36.4806 0.39994 36.3281 0.453529 36.2056 0.551906C36.083 0.650282 35.9977 0.787551 35.9638 0.941003L35.5978 2.6C35.5629 2.75703 35.5866 2.9214 35.6646 3.06213C35.7425 3.20285 35.8692 3.31022 36.0208 3.364L36.0918 3.39C36.7918 3.658 37.7698 4.337 37.3448 6.005L33.1668 24.922C33.1464 25.014 33.147 25.1094 33.1684 25.2011C33.1898 25.2929 33.2316 25.3787 33.2907 25.4521C33.3497 25.5255 33.4245 25.5848 33.5095 25.6254C33.5945 25.6661 33.6875 25.6871 33.7818 25.687H43.3658C43.5091 25.687 43.6481 25.6382 43.7599 25.5485C43.8717 25.4589 43.9496 25.3339 43.9808 25.194L44.3978 23.306C44.4278 23.171 44.4102 23.0298 44.3481 22.9062C44.2859 22.7827 44.183 22.6844 44.0568 22.628L43.9638 22.585C43.3558 22.285 42.4508 21.602 42.7538 20.277C42.7878 20.1 43.6978 16 43.6978 16H51.8478C51.9916 16 52.1311 15.951 52.2433 15.861C52.3555 15.771 52.4336 15.6454 52.4648 15.505L53.2318 12.05C53.2523 11.9575 53.2517 11.8615 53.2302 11.7693C53.2087 11.677 53.1667 11.5907 53.1074 11.5168C53.0481 11.4429 52.973 11.3832 52.8875 11.3423C52.8021 11.3013 52.7085 11.28 52.6138 11.28H44.7388L46.2078 4.58L51.7078 4.574C53.4848 4.574 54.0268 5.502 53.9238 7.084C53.9238 7.084 53.9238 7.105 53.9158 7.169C53.9065 7.25739 53.9159 7.34674 53.9434 7.43127C53.9708 7.51581 54.0156 7.59365 54.075 7.6598C54.1343 7.72594 54.2069 7.77891 54.288 7.81528C54.3691 7.85166 54.4569 7.87064 54.5458 7.871Z" fill="#E4002B"/>
</svg>
