<svg width="24" height="26" viewBox="0 0 24 26" fill="none" xmlns="http://www.w3.org/2000/svg">
<ellipse cx="12" cy="12.8592" rx="12" ry="12.8592" fill="#6347EB"/>
<path d="M6.21691 4.05703C6.05626 3.80084 5.7148 3.72995 5.48407 3.91723C4.23976 4.92724 3.24557 6.25346 2.59352 7.77981C1.93446 9.3226 1.64825 11.0153 1.75747 12.7025C1.77583 12.9862 2.03507 13.1902 2.3148 13.1538C2.58215 13.1191 2.76881 12.877 2.75189 12.6059C2.65819 11.1042 2.91459 9.59823 3.50119 8.22507C4.08584 6.85647 4.97802 5.66774 6.0948 4.76348C6.30508 4.59321 6.36318 4.29029 6.21691 4.05703Z" fill="url(#paint0_linear_183_1130)"/>
<path d="M10.0744 2.47078C10.0397 2.17712 9.77305 1.96925 9.48254 2.02665C8.54262 2.21235 7.63426 2.54959 6.78848 3.02694C6.54253 3.16575 6.46292 3.4781 6.59868 3.72239C6.74469 3.98513 7.08148 4.06686 7.34789 3.92105C8.06168 3.53036 8.82369 3.25027 9.61103 3.0892C9.90001 3.03008 10.1089 2.76325 10.0744 2.47078Z" fill="url(#paint1_linear_183_1130)"/>
<path d="M11.8225 2.41825C11.8417 2.12298 11.6177 1.86356 11.3222 1.85941C11.2309 1.85813 11.1396 1.85827 11.0483 1.85982C10.7585 1.86474 10.5431 2.11594 10.5623 2.40603C10.5821 2.70512 10.8433 2.93059 11.1422 2.92847C11.18 2.9282 11.2178 2.9282 11.2557 2.92848C11.55 2.93062 11.8033 2.71234 11.8225 2.41825Z" fill="url(#paint2_linear_183_1130)"/>
<path d="M11.7198 6.69135C11.8632 6.21813 12.5332 6.21813 12.6767 6.69135L13.7431 10.2084C13.807 10.4192 14.0014 10.5633 14.2216 10.5633H17.7422C18.2182 10.5633 18.425 11.1654 18.0494 11.4578L15.143 13.7206C14.9798 13.8477 14.9117 14.0622 14.9717 14.2602L16.0676 17.8745C16.2091 18.3413 15.6668 18.7138 15.2819 18.4141L12.5054 16.2524C12.3248 16.1118 12.0717 16.1118 11.8911 16.2524L9.11454 18.4141C8.72964 18.7138 8.18735 18.3413 8.32889 17.8745L9.42479 14.2602C9.48482 14.0622 9.41671 13.8477 9.25346 13.7206L6.34708 11.4578C5.97153 11.1654 6.17829 10.5633 6.65424 10.5633H10.1749C10.3951 10.5633 10.5894 10.4192 10.6534 10.2084L11.7198 6.69135Z" fill="white"/>
<rect x="23.2114" y="5.37891" width="0.788609" height="0.788732" fill="white"/>
<rect x="20.793" y="4.11328" width="0.630887" height="0.619718" fill="white"/>
<rect x="21.437" y="8.81641" width="0.630887" height="0.619718" fill="white"/>
<rect x="16.6001" y="4.15625" width="0.630887" height="0.619718" fill="white"/>
<rect x="19.2026" y="6.95703" width="1.2092" height="1.1831" fill="white"/>
<rect x="15.7065" y="6.95703" width="1.2092" height="1.1831" fill="white"/>
<rect x="18.2036" y="10.0859" width="0.998905" height="0.985915" fill="white"/>
<rect x="23.3691" y="3.83203" width="0.236583" height="0.28169" fill="white"/>
<defs>
<linearGradient id="paint0_linear_183_1130" x1="5.62526" y1="2.64871" x2="2.04486" y2="14.0644" gradientUnits="userSpaceOnUse">
<stop offset="0.0728205" stop-color="#FFDEC5"/>
<stop offset="1" stop-color="#FEFEFE"/>
</linearGradient>
<linearGradient id="paint1_linear_183_1130" x1="2.09204" y1="1.63641" x2="33.3473" y2="-0.952183" gradientUnits="userSpaceOnUse">
<stop stop-color="#FDFDFD"/>
<stop offset="1" stop-color="#FF9B4F"/>
</linearGradient>
<linearGradient id="paint2_linear_183_1130" x1="4.14329" y1="-0.0613076" x2="35.3566" y2="3.06476" gradientUnits="userSpaceOnUse">
<stop stop-color="#FDFDFD"/>
<stop offset="1" stop-color="#FF9B4F"/>
</linearGradient>
</defs>
</svg>
