<svg width="36" height="38" viewBox="0 0 36 38" fill="none" xmlns="http://www.w3.org/2000/svg">
<path d="M1.72482 16.4064C2.8779 12.0489 6.39861 8.65694 10.7935 7.7431C15.5475 6.75462 20.4525 6.75462 25.2065 7.7431C29.6014 8.65694 33.1221 12.0489 34.2752 16.4064C35.233 20.026 35.2459 23.8827 34.2881 27.5022C33.1169 31.9279 29.558 35.3094 25.0943 36.2375L24.7835 36.3021C20.3086 37.2326 15.6914 37.2326 11.2165 36.3021L10.9057 36.2375C6.44204 35.3094 2.88307 31.9279 1.71195 27.5022C0.754148 23.8827 0.767017 20.026 1.72482 16.4064Z" fill="#363853" fill-opacity="0.15"/>
<path d="M1.02292 20.9903V9.50423C1.02292 5.7198 3.59374 2.38638 7.22544 1.38128C8.13166 1.13047 9.0795 1 10.0195 1H11.7354C15.0979 1 19.0441 3.62233 20.4926 7.08962C18.08 7.09007 13.1683 7.24931 10.7935 7.7431C6.39861 8.65694 2.8779 12.0489 1.72482 16.4064C1.32828 17.905 1.0937 19.4441 1.02292 20.9903Z" fill="#363853" fill-opacity="0.15"/>
<path d="M1.02292 22.9928V23.0276L1.02479 23.0328C1.02416 23.0195 1.02353 23.0062 1.02292 22.9928Z" fill="#363853" fill-opacity="0.15"/>
<path d="M1.71195 27.5022L0.986902 27.6941L1.71195 27.5022ZM1.72482 16.4064L0.999772 16.2146L1.72482 16.4064ZM34.2752 16.4064L35.0002 16.2146L34.2752 16.4064ZM34.2881 27.5022L35.0131 27.6941L34.2881 27.5022ZM24.7835 36.3021L24.9362 37.0364H24.9362L24.7835 36.3021ZM11.2165 36.3021L11.0638 37.0364H11.0638L11.2165 36.3021ZM10.7935 7.7431L10.9462 8.4774L10.7935 7.7431ZM25.2065 7.7431L25.0538 8.4774L25.2065 7.7431ZM10.9057 36.2375L11.0584 35.5032H11.0584L10.9057 36.2375ZM25.0943 36.2375L24.9416 35.5032H24.9416L25.0943 36.2375ZM1.02292 20.9903H0.272923L1.77214 21.0246L1.02292 20.9903ZM7.22544 1.38128L7.0254 0.658447V0.658447L7.22544 1.38128ZM20.4926 7.08962L20.4927 7.83962L21.6186 7.8394L21.1846 6.80052L20.4926 7.08962ZM1.02292 22.9928L1.77214 22.9585L0.272923 22.9928H1.02292ZM1.02292 23.0276H0.272923V23.1579L0.316867 23.2805L1.02292 23.0276ZM1.02479 23.0328L0.318738 23.2858L1.77394 22.9971L1.02479 23.0328ZM23.3444 11.7986C22.9358 11.7302 22.5492 12.0059 22.4808 12.4144C22.4124 12.8229 22.6881 13.2096 23.0967 13.278L23.3444 11.7986ZM23.3058 12.5525L23.4296 11.8128L23.4296 11.8128L23.3058 12.5525ZM28.7351 19.8808C28.7351 20.295 29.0709 20.6308 29.4851 20.6308C29.8993 20.6308 30.2351 20.295 30.2351 19.8808H28.7351ZM24.9416 35.5032L24.6309 35.5679L24.9362 37.0364L25.247 36.9718L24.9416 35.5032ZM11.3692 35.5679L11.0584 35.5032L10.753 36.9718L11.0638 37.0364L11.3692 35.5679ZM2.43699 27.3104C1.51292 23.8183 1.52488 20.0938 2.44986 16.5983L0.999772 16.2146C0.00915569 19.9581 -0.00462437 23.9471 0.986902 27.6941L2.43699 27.3104ZM33.5501 16.5983C34.4751 20.0938 34.4871 23.8183 33.563 27.3104L35.0131 27.6941C36.0046 23.9471 35.9908 19.9581 35.0002 16.2146L33.5501 16.5983ZM24.6309 35.5679C20.2566 36.4774 15.7434 36.4774 11.3692 35.5679L11.0638 37.0364C15.6394 37.9879 20.3606 37.9879 24.9362 37.0364L24.6309 35.5679ZM10.9462 8.4774C15.5994 7.50985 20.4006 7.50985 25.0538 8.4774L25.3591 7.00881C20.5045 5.99938 15.4955 5.99938 10.6409 7.00881L10.9462 8.4774ZM11.0584 35.5032C6.8743 34.6332 3.53583 31.4629 2.43699 27.3104L0.986902 27.6941C2.23031 32.3929 6.00977 35.9856 10.7531 36.9718L11.0584 35.5032ZM25.247 36.9718C29.9902 35.9856 33.7697 32.3929 35.0131 27.6941L33.563 27.3104C32.4642 31.4629 29.1257 34.6332 24.9416 35.5032L25.247 36.9718ZM25.0538 8.4774C29.1647 9.33217 32.4682 12.5095 33.5501 16.5983L35.0002 16.2146C33.776 11.5884 30.0381 7.98171 25.3591 7.00881L25.0538 8.4774ZM10.6409 7.00881C5.96188 7.98171 2.22396 11.5884 0.999772 16.2146L2.44986 16.5983C3.53184 12.5095 6.83533 9.33217 10.9462 8.4774L10.6409 7.00881ZM0.272923 9.50423V20.9903H1.77292V9.50423H0.272923ZM7.0254 0.658447C3.07254 1.75243 0.272923 5.3787 0.272923 9.50423H1.77292C1.77292 6.06091 4.11493 3.02032 7.42549 2.1041L7.0254 0.658447ZM10.0195 0.25C9.01097 0.25 7.99587 0.389863 7.0254 0.658447L7.42549 2.1041C8.26745 1.87109 9.14803 1.75 10.0195 1.75V0.25ZM11.7354 0.25H10.0195V1.75H11.7354V0.25ZM21.1846 6.80052C20.3954 4.91142 18.9415 3.28204 17.2559 2.12605C15.5733 0.972085 13.6009 0.25 11.7354 0.25V1.75C13.2324 1.75 14.9144 2.33908 16.4076 3.3631C17.8978 4.3851 19.1412 5.80053 19.8005 7.37871L21.1846 6.80052ZM10.9462 8.4774C13.2352 8.00146 18.0733 7.84007 20.4927 7.83962L20.4924 6.33962C18.0867 6.34007 13.1015 6.49717 10.6409 7.00881L10.9462 8.4774ZM1.77214 21.0246C1.8405 19.5312 2.06707 18.0449 2.44986 16.5983L0.999772 16.2146C0.589486 17.7651 0.346905 19.3571 0.273707 20.956L1.77214 21.0246ZM0.272923 22.9928V23.0276H1.77292V22.9928H0.272923ZM0.316867 23.2805L0.318738 23.2858L1.73085 22.7799L1.72898 22.7746L0.316867 23.2805ZM1.77394 22.9971C1.77333 22.9842 1.77273 22.9713 1.77214 22.9585L0.27371 23.0272C0.274342 23.041 0.274987 23.0548 0.275645 23.0685L1.77394 22.9971ZM23.0967 13.278L23.1819 13.2922L23.4296 11.8128L23.3444 11.7986L23.0967 13.278ZM23.1819 13.2922C26.3839 13.8284 28.7351 16.613 28.7351 19.8808H30.2351C30.2351 15.8851 27.3593 12.4708 23.4296 11.8128L23.1819 13.2922Z" fill="#577399"/>
</svg>
