<svg width="21" height="22" viewBox="0 0 21 22" fill="none" xmlns="http://www.w3.org/2000/svg">
<path d="M1.5 8.10986V13.8799C1.5 15.9999 1.5 15.9999 3.5 17.3499L9 20.5299C9.83 21.0099 11.18 21.0099 12 20.5299L17.5 17.3499C19.5 15.9999 19.5 15.9999 19.5 13.8899V8.10986C19.5 5.99986 19.5 5.99986 17.5 4.64986L12 1.46986C11.18 0.989863 9.83 0.989863 9 1.46986L3.5 4.64986C1.5 5.99986 1.5 5.99986 1.5 8.10986Z" stroke="#131117" stroke-width="1.5" stroke-linecap="round" stroke-linejoin="round"/>
<path d="M10.5 13.9999C12.1569 13.9999 13.5 12.6567 13.5 10.9999C13.5 9.34301 12.1569 7.99986 10.5 7.99986C8.84315 7.99986 7.5 9.34301 7.5 10.9999C7.5 12.6567 8.84315 13.9999 10.5 13.9999Z" stroke="#131117" stroke-width="1.5" stroke-linecap="round" stroke-linejoin="round"/>
</svg>
