<svg width="144" height="80" viewBox="0 0 144 80" fill="none" xmlns="http://www.w3.org/2000/svg">
<path d="M0.911723 5.55658C0.65791 5.55658 0.440833 5.47028 0.260492 5.29767C0.0868309 5.12507 0 4.90599 0 4.64044C0 4.38817 0.0901705 4.17574 0.270511 4.00313C0.450852 3.82389 0.664589 3.73426 0.911723 3.73426C1.15886 3.73426 1.36925 3.82389 1.54292 4.00313C1.72326 4.17574 1.81343 4.38817 1.81343 4.64044C1.81343 4.90599 1.72326 5.12507 1.54292 5.29767C1.36925 5.47028 1.15886 5.55658 0.911723 5.55658Z" fill="black"/>
<path d="M14.169 7.38886L12.6562 5.24788C12.4692 5.26116 12.3222 5.2678 12.2153 5.2678H10.4821V7.38886H9.48018V0.418237H12.2153C13.1237 0.418237 13.8384 0.633995 14.3594 1.06551C14.8804 1.49702 15.1409 2.09119 15.1409 2.848C15.1409 3.38573 15.0073 3.8438 14.7401 4.22221C14.4729 4.60061 14.0922 4.87612 13.598 5.04872L15.2611 7.38886H14.169ZM12.1853 4.42137C12.8198 4.42137 13.3041 4.28527 13.638 4.01309C13.972 3.7409 14.139 3.35254 14.139 2.848C14.139 2.34346 13.972 1.95841 13.638 1.69287C13.3041 1.42068 12.8198 1.28459 12.1853 1.28459H10.4821V4.42137H12.1853Z" fill="black"/>
<path d="M21.4184 4.77986C21.4184 4.85288 21.4117 4.94914 21.3983 5.06864H17.0902C17.1503 5.53335 17.354 5.90843 17.7013 6.1939C18.0553 6.47272 18.4928 6.61213 19.0138 6.61213C19.6484 6.61213 20.1593 6.3997 20.5467 5.97482L21.0777 6.59222C20.8373 6.87104 20.5367 7.08348 20.176 7.22953C19.822 7.37558 19.4246 7.44861 18.9838 7.44861C18.4227 7.44861 17.9251 7.33575 17.4909 7.11004C17.0568 6.87768 16.7195 6.55571 16.479 6.14411C16.2453 5.73251 16.1284 5.2678 16.1284 4.74998C16.1284 4.2388 16.2419 3.77741 16.469 3.36582C16.7028 2.95422 17.0201 2.63556 17.4208 2.40984C17.8282 2.17749 18.2858 2.06131 18.7934 2.06131C19.301 2.06131 19.7519 2.17749 20.146 2.40984C20.5467 2.63556 20.8573 2.95422 21.0777 3.36582C21.3048 3.77741 21.4184 4.24876 21.4184 4.77986ZM18.7934 2.86791C18.3325 2.86791 17.9451 3.00733 17.6312 3.28615C17.324 3.56498 17.1436 3.9301 17.0902 4.38154H20.4966C20.4432 3.93674 20.2595 3.57493 19.9456 3.29611C19.6383 3.01065 19.2543 2.86791 18.7934 2.86791Z" fill="black"/>
<path d="M27.553 4.77986C27.553 4.85288 27.5463 4.94914 27.533 5.06864H23.2248C23.2849 5.53335 23.4887 5.90843 23.836 6.1939C24.19 6.47272 24.6275 6.61213 25.1485 6.61213C25.783 6.61213 26.294 6.3997 26.6814 5.97482L27.2124 6.59222C26.9719 6.87104 26.6713 7.08348 26.3107 7.22953C25.9567 7.37558 25.5592 7.44861 25.1184 7.44861C24.5573 7.44861 24.0597 7.33575 23.6256 7.11004C23.1914 6.87768 22.8541 6.55571 22.6137 6.14411C22.3799 5.73251 22.263 5.2678 22.263 4.74998C22.263 4.2388 22.3766 3.77741 22.6036 3.36582C22.8374 2.95422 23.1547 2.63556 23.5554 2.40984C23.9629 2.17749 24.4204 2.06131 24.928 2.06131C25.4357 2.06131 25.8865 2.17749 26.2806 2.40984C26.6814 2.63556 26.9919 2.95422 27.2124 3.36582C27.4395 3.77741 27.553 4.24876 27.553 4.77986ZM24.928 2.86791C24.4672 2.86791 24.0798 3.00733 23.7658 3.28615C23.4586 3.56498 23.2783 3.9301 23.2248 4.38154H26.6313C26.5778 3.93674 26.3941 3.57493 26.0802 3.29611C25.773 3.01065 25.3889 2.86791 24.928 2.86791Z" fill="black"/>
<path d="M33.898 0V7.38886H32.9763V6.55239C32.7626 6.84449 32.4921 7.06689 32.1648 7.21958C31.8375 7.37226 31.4768 7.44861 31.0827 7.44861C30.5684 7.44861 30.1075 7.33575 29.7001 7.11004C29.2927 6.88432 28.9721 6.56898 28.7383 6.16402C28.5112 5.75242 28.3976 5.28108 28.3976 4.74998C28.3976 4.21889 28.5112 3.75086 28.7383 3.3459C28.9721 2.94094 29.2927 2.6256 29.7001 2.39989C30.1075 2.17417 30.5684 2.06131 31.0827 2.06131C31.4634 2.06131 31.8141 2.13434 32.1347 2.28039C32.4553 2.4198 32.7225 2.62892 32.9362 2.90775V0H33.898ZM31.1629 6.61213C31.4968 6.61213 31.8007 6.53579 32.0746 6.3831C32.3484 6.22377 32.5622 6.00469 32.7158 5.72587C32.8694 5.44041 32.9462 5.11511 32.9462 4.74998C32.9462 4.38485 32.8694 4.06288 32.7158 3.78405C32.5622 3.49859 32.3484 3.27951 32.0746 3.12682C31.8007 2.97413 31.4968 2.89779 31.1629 2.89779C30.8222 2.89779 30.515 2.97413 30.2411 3.12682C29.974 3.27951 29.7602 3.49859 29.5999 3.78405C29.4463 4.06288 29.3695 4.38485 29.3695 4.74998C29.3695 5.11511 29.4463 5.44041 29.5999 5.72587C29.7602 6.00469 29.974 6.22377 30.2411 6.3831C30.515 6.53579 30.8222 6.61213 31.1629 6.61213Z" fill="black"/>
<path d="M40.517 4.77986C40.517 4.85288 40.5103 4.94914 40.4969 5.06864H36.1888C36.2489 5.53335 36.4526 5.90843 36.7999 6.1939C37.1539 6.47272 37.5914 6.61213 38.1124 6.61213C38.7469 6.61213 39.2579 6.3997 39.6453 5.97482L40.1763 6.59222C39.9359 6.87104 39.6353 7.08348 39.2746 7.22953C38.9206 7.37558 38.5232 7.44861 38.0824 7.44861C37.5213 7.44861 37.0237 7.33575 36.5895 7.11004C36.1554 6.87768 35.8181 6.55571 35.5776 6.14411C35.3438 5.73251 35.227 5.2678 35.227 4.74998C35.227 4.2388 35.3405 3.77741 35.5676 3.36582C35.8014 2.95422 36.1186 2.63556 36.5194 2.40984C36.9268 2.17749 37.3844 2.06131 37.892 2.06131C38.3996 2.06131 38.8505 2.17749 39.2445 2.40984C39.6453 2.63556 39.9559 2.95422 40.1763 3.36582C40.4034 3.77741 40.517 4.24876 40.517 4.77986ZM37.892 2.86791C37.4311 2.86791 37.0437 3.00733 36.7298 3.28615C36.4225 3.56498 36.2422 3.9301 36.1888 4.38154H39.5952C39.5418 3.93674 39.3581 3.57493 39.0442 3.29611C38.7369 3.01065 38.3529 2.86791 37.892 2.86791Z" fill="black"/>
<path d="M43.6394 2.06131C44.3741 2.06131 44.9352 2.24056 45.3226 2.59905C45.7167 2.95754 45.9137 3.49195 45.9137 4.20229V7.38886H45.002V6.6918C44.8417 6.93743 44.6113 7.12663 44.3107 7.25941C44.0168 7.38554 43.6661 7.44861 43.2587 7.44861C42.6642 7.44861 42.1867 7.30588 41.826 7.02041C41.472 6.73495 41.295 6.35986 41.295 5.89516C41.295 5.43045 41.4653 5.05868 41.806 4.77986C42.1466 4.49439 42.6876 4.35166 43.429 4.35166H44.9519V4.16246C44.9519 3.75086 44.8317 3.43552 44.5912 3.21645C44.3508 2.99737 43.9968 2.88783 43.5292 2.88783C43.2153 2.88783 42.908 2.94094 42.6075 3.04716C42.3069 3.14674 42.0531 3.28283 41.846 3.45544L41.4453 2.73846C41.7191 2.51938 42.0464 2.35342 42.4271 2.24056C42.8078 2.12106 43.2119 2.06131 43.6394 2.06131ZM43.419 6.71172C43.7864 6.71172 44.1036 6.63205 44.3708 6.47272C44.638 6.30676 44.8317 6.0744 44.9519 5.77566V5.03877H43.4691C42.6542 5.03877 42.2468 5.31095 42.2468 5.85532C42.2468 6.12087 42.3503 6.32999 42.5574 6.48268C42.7644 6.63537 43.0516 6.71172 43.419 6.71172Z" fill="black"/>
<path d="M54.3362 2.06131C55.0041 2.06131 55.5318 2.25384 55.9192 2.63888C56.3133 3.02392 56.5103 3.59485 56.5103 4.35166V7.38886H55.5485V4.4612C55.5485 3.95002 55.4283 3.56498 55.1878 3.30607C54.954 3.04716 54.6167 2.9177 54.1759 2.9177C53.6883 2.9177 53.3009 3.07039 53.0137 3.37577C52.7265 3.67452 52.5829 4.10603 52.5829 4.67032V7.38886H51.6211V4.4612C51.6211 3.95002 51.5008 3.56498 51.2604 3.30607C51.0266 3.04716 50.6893 2.9177 50.2485 2.9177C49.7609 2.9177 49.3735 3.07039 49.0863 3.37577C48.7991 3.67452 48.6555 4.10603 48.6555 4.67032V7.38886H47.6936V2.1111H48.6154V2.89779C48.8091 2.6256 49.0629 2.4198 49.3768 2.28039C49.6907 2.13434 50.0481 2.06131 50.4488 2.06131C50.863 2.06131 51.2303 2.1443 51.5509 2.31026C51.8715 2.47623 52.1187 2.71854 52.2923 3.0372C52.4927 2.73182 52.7699 2.49283 53.1239 2.32022C53.4846 2.14762 53.8887 2.06131 54.3362 2.06131Z" fill="black"/>
<path d="M61.0954 2.06131C61.6097 2.06131 62.0705 2.17417 62.478 2.39989C62.8854 2.6256 63.2027 2.94094 63.4298 3.3459C63.6636 3.75086 63.7804 4.21889 63.7804 4.74998C63.7804 5.28108 63.6636 5.75242 63.4298 6.16402C63.2027 6.56898 62.8854 6.88432 62.478 7.11004C62.0705 7.33575 61.6097 7.44861 61.0954 7.44861C60.7013 7.44861 60.3406 7.37226 60.0133 7.21958C59.686 7.06689 59.4155 6.84449 59.2018 6.55239V7.38886H58.2801V0H59.2419V2.90775C59.4556 2.62892 59.7228 2.4198 60.0434 2.28039C60.364 2.13434 60.7146 2.06131 61.0954 2.06131ZM61.0152 6.61213C61.3559 6.61213 61.6598 6.53579 61.9269 6.3831C62.2008 6.22377 62.4145 6.00469 62.5681 5.72587C62.7285 5.44041 62.8086 5.11511 62.8086 4.74998C62.8086 4.38485 62.7285 4.06288 62.5681 3.78405C62.4145 3.49859 62.2008 3.27951 61.9269 3.12682C61.6598 2.97413 61.3559 2.89779 61.0152 2.89779C60.6812 2.89779 60.3773 2.97413 60.1035 3.12682C59.8296 3.27951 59.6159 3.49859 59.4623 3.78405C59.3087 4.06288 59.2318 4.38485 59.2318 4.74998C59.2318 5.11511 59.3087 5.44041 59.4623 5.72587C59.6159 6.00469 59.8296 6.22377 60.1035 6.3831C60.3773 6.53579 60.6812 6.61213 61.0152 6.61213Z" fill="black"/>
<path d="M65.1094 0H66.0712V7.38886H65.1094V0Z" fill="black"/>
<path d="M72.7067 4.77986C72.7067 4.85288 72.7 4.94914 72.6866 5.06864H68.3785C68.4386 5.53335 68.6423 5.90843 68.9897 6.1939C69.3437 6.47272 69.7812 6.61213 70.3021 6.61213C70.9367 6.61213 71.4476 6.3997 71.835 5.97482L72.366 6.59222C72.1256 6.87104 71.825 7.08348 71.4643 7.22953C71.1103 7.37558 70.7129 7.44861 70.2721 7.44861C69.711 7.44861 69.2134 7.33575 68.7793 7.11004C68.3451 6.87768 68.0078 6.55571 67.7674 6.14411C67.5336 5.73251 67.4167 5.2678 67.4167 4.74998C67.4167 4.2388 67.5302 3.77741 67.7573 3.36582C67.9911 2.95422 68.3084 2.63556 68.7091 2.40984C69.1166 2.17749 69.5741 2.06131 70.0817 2.06131C70.5893 2.06131 71.0402 2.17749 71.4343 2.40984C71.835 2.63556 72.1456 2.95422 72.366 3.36582C72.5931 3.77741 72.7067 4.24876 72.7067 4.77986ZM70.0817 2.86791C69.6208 2.86791 69.2335 3.00733 68.9195 3.28615C68.6123 3.56498 68.4319 3.9301 68.3785 4.38154H71.7849C71.7315 3.93674 71.5478 3.57493 71.2339 3.29611C70.9267 3.01065 70.5426 2.86791 70.0817 2.86791Z" fill="black"/>
<path d="M78.6665 2.06131C79.4013 2.06131 79.9623 2.24056 80.3497 2.59905C80.7438 2.95754 80.9408 3.49195 80.9408 4.20229V7.38886H80.0291V6.6918C79.8688 6.93743 79.6384 7.12663 79.3378 7.25941C79.0439 7.38554 78.6933 7.44861 78.2858 7.44861C77.6914 7.44861 77.2138 7.30588 76.8531 7.02041C76.4991 6.73495 76.3221 6.35986 76.3221 5.89516C76.3221 5.43045 76.4924 5.05868 76.8331 4.77986C77.1737 4.49439 77.7147 4.35166 78.4561 4.35166H79.979V4.16246C79.979 3.75086 79.8588 3.43552 79.6183 3.21645C79.3779 2.99737 79.0239 2.88783 78.5563 2.88783C78.2424 2.88783 77.9352 2.94094 77.6346 3.04716C77.334 3.14674 77.0802 3.28283 76.8732 3.45544L76.4724 2.73846C76.7462 2.51938 77.0735 2.35342 77.4542 2.24056C77.835 2.12106 78.2391 2.06131 78.6665 2.06131ZM78.4461 6.71172C78.8135 6.71172 79.1308 6.63205 79.3979 6.47272C79.6651 6.30676 79.8588 6.0744 79.979 5.77566V5.03877H78.4962C77.6813 5.03877 77.2739 5.31095 77.2739 5.85532C77.2739 6.12087 77.3774 6.32999 77.5845 6.48268C77.7915 6.63537 78.0788 6.71172 78.4461 6.71172Z" fill="black"/>
<path d="M85.7064 7.08016C85.5661 7.19966 85.3925 7.2926 85.1854 7.35899C84.9784 7.41874 84.7646 7.44861 84.5442 7.44861C84.0099 7.44861 83.5957 7.30588 83.3019 7.02041C83.008 6.73495 82.861 6.32667 82.861 5.79558V2.89779H81.9593V2.1111H82.861V0.955971H83.8228V2.1111H85.3457V2.89779H83.8228V5.75574C83.8228 6.04121 83.893 6.26028 84.0332 6.41297C84.1802 6.56566 84.3872 6.64201 84.6544 6.64201C84.9483 6.64201 85.1988 6.55903 85.4058 6.39306L85.7064 7.08016Z" fill="black"/>
<path d="M91.4935 2.06131C92.2282 2.06131 92.7893 2.24056 93.1767 2.59905C93.5708 2.95754 93.7678 3.49195 93.7678 4.20229V7.38886H92.8561V6.6918C92.6958 6.93743 92.4654 7.12663 92.1648 7.25941C91.8709 7.38554 91.5202 7.44861 91.1128 7.44861C90.5183 7.44861 90.0408 7.30588 89.6801 7.02041C89.3261 6.73495 89.1491 6.35986 89.1491 5.89516C89.1491 5.43045 89.3194 5.05868 89.66 4.77986C90.0007 4.49439 90.5417 4.35166 91.2831 4.35166H92.806V4.16246C92.806 3.75086 92.6858 3.43552 92.4453 3.21645C92.2049 2.99737 91.8509 2.88783 91.3833 2.88783C91.0694 2.88783 90.7621 2.94094 90.4616 3.04716C90.161 3.14674 89.9072 3.28283 89.7001 3.45544L89.2994 2.73846C89.5732 2.51938 89.9005 2.35342 90.2812 2.24056C90.6619 2.12106 91.066 2.06131 91.4935 2.06131ZM91.2731 6.71172C91.6405 6.71172 91.9577 6.63205 92.2249 6.47272C92.4921 6.30676 92.6858 6.0744 92.806 5.77566V5.03877H91.3232C90.5083 5.03877 90.1009 5.31095 90.1009 5.85532C90.1009 6.12087 90.2044 6.32999 90.4115 6.48268C90.6185 6.63537 90.9057 6.71172 91.2731 6.71172Z" fill="black"/>
<path d="M95.5477 0H96.5096V7.38886H95.5477V0Z" fill="black"/>
<path d="M98.346 0H99.3078V7.38886H98.346V0Z" fill="black"/>
<path d="M106.259 4.29191L104.977 5.58646V7.38886H103.975V0.418237H104.977V4.31183L108.784 0.418237H109.926L106.931 3.55502L110.117 7.38886H108.945L106.259 4.29191Z" fill="black"/>
<path d="M112.178 1.28459V3.71435H115.695V4.57074H112.178V7.38886H111.176V0.418237H116.126V1.28459H112.178Z" fill="black"/>
<path d="M120.594 7.46853C119.892 7.46853 119.258 7.31584 118.69 7.01046C118.129 6.69844 117.688 6.27356 117.367 5.73583C117.047 5.19146 116.887 4.5807 116.887 3.90355C116.887 3.2264 117.047 2.61896 117.367 2.08123C117.688 1.53686 118.132 1.11198 118.7 0.806601C119.268 0.494583 119.902 0.338573 120.604 0.338573C121.151 0.338573 121.652 0.431515 122.106 0.617399C122.561 0.796643 122.948 1.06551 123.269 1.424L122.617 2.05136C122.09 1.50034 121.432 1.22484 120.644 1.22484C120.123 1.22484 119.652 1.34102 119.231 1.57337C118.81 1.80572 118.48 2.1277 118.239 2.5393C118.005 2.94426 117.888 3.39901 117.888 3.90355C117.888 4.40809 118.005 4.86616 118.239 5.27776C118.48 5.68272 118.81 6.00138 119.231 6.23373C119.652 6.46608 120.123 6.58226 120.644 6.58226C121.425 6.58226 122.083 6.30344 122.617 5.74579L123.269 6.37314C122.948 6.73163 122.557 7.00382 122.096 7.1897C121.642 7.37558 121.141 7.46853 120.594 7.46853Z" fill="black"/>
<path d="M10.2617 15.0893C10.4286 14.7839 10.6758 14.5515 11.0031 14.3922C11.3303 14.2329 11.7278 14.1532 12.1953 14.1532V15.0793C12.1419 15.0727 12.0684 15.0694 11.9749 15.0694C11.4539 15.0694 11.0431 15.2254 10.7426 15.5374C10.4487 15.8428 10.3017 16.2809 10.3017 16.8518V19.4808H9.33991V14.203H10.2617V15.0893Z" fill="black"/>
<path d="M18.1309 16.8718C18.1309 16.9448 18.1242 17.041 18.1109 17.1605H13.8027C13.8628 17.6252 14.0666 18.0003 14.4139 18.2858C14.7679 18.5646 15.2054 18.704 15.7264 18.704C16.3609 18.704 16.8719 18.4916 17.2593 18.0667L17.7903 18.6841C17.5498 18.9629 17.2492 19.1754 16.8886 19.3214C16.5346 19.4675 16.1371 19.5405 15.6963 19.5405C15.1352 19.5405 14.6376 19.4277 14.2035 19.2019C13.7693 18.9696 13.432 18.6476 13.1916 18.236C12.9578 17.8244 12.8409 17.3597 12.8409 16.8419C12.8409 16.3307 12.9545 15.8693 13.1815 15.4577C13.4153 15.0461 13.7326 14.7275 14.1333 14.5017C14.5408 14.2694 14.9983 14.1532 15.5059 14.1532C16.0136 14.1532 16.4644 14.2694 16.8585 14.5017C17.2593 14.7275 17.5698 15.0461 17.7903 15.4577C18.0174 15.8693 18.1309 16.3407 18.1309 16.8718ZM15.5059 14.9598C15.0451 14.9598 14.6577 15.0992 14.3437 15.3781C14.0365 15.6569 13.8562 16.022 13.8027 16.4734H17.2092C17.1557 16.0286 16.972 15.6668 16.6581 15.388C16.3509 15.1025 15.9668 14.9598 15.5059 14.9598Z" fill="black"/>
<path d="M20.9893 19.5405C20.5552 19.5405 20.1377 19.4841 19.737 19.3712C19.3362 19.2517 19.0223 19.1024 18.7952 18.9231L19.196 18.1663C19.4297 18.3323 19.7136 18.465 20.0476 18.5646C20.3815 18.6642 20.7188 18.714 21.0595 18.714C21.9011 18.714 22.3219 18.475 22.3219 17.997C22.3219 17.8377 22.2651 17.7115 22.1515 17.6186C22.038 17.5257 21.8944 17.4593 21.7207 17.4194C21.5537 17.373 21.3133 17.3232 20.9994 17.2701C20.5719 17.2037 20.2212 17.1273 19.9474 17.041C19.6802 16.9547 19.4498 16.8087 19.2561 16.6029C19.0624 16.3971 18.9655 16.1083 18.9655 15.7365C18.9655 15.2586 19.1659 14.8768 19.5667 14.5914C19.9674 14.2993 20.5051 14.1532 21.1797 14.1532C21.5337 14.1532 21.8877 14.1964 22.2417 14.2827C22.5957 14.369 22.8863 14.4851 23.1134 14.6312L22.7026 15.388C22.2684 15.1092 21.7575 14.9698 21.1697 14.9698C20.7623 14.9698 20.4517 15.0362 20.2379 15.1689C20.0242 15.3017 19.9173 15.4776 19.9173 15.6967C19.9173 15.8693 19.9774 16.0054 20.0977 16.105C20.2179 16.2046 20.3648 16.2776 20.5385 16.3241C20.7188 16.3705 20.9693 16.4236 21.2899 16.4834C21.7174 16.5564 22.0614 16.6361 22.3219 16.7224C22.589 16.802 22.8161 16.9415 23.0032 17.1406C23.1902 17.3398 23.2837 17.6186 23.2837 17.9771C23.2837 18.4551 23.0766 18.8368 22.6625 19.1223C22.2551 19.4011 21.6974 19.5405 20.9893 19.5405Z" fill="black"/>
<path d="M27.4714 19.1721C27.3311 19.2916 27.1574 19.3845 26.9504 19.4509C26.7433 19.5106 26.5296 19.5405 26.3092 19.5405C25.7748 19.5405 25.3607 19.3978 25.0668 19.1123C24.7729 18.8268 24.626 18.4186 24.626 17.8875V14.9897H23.7243V14.203H24.626V13.0479H25.5878V14.203H27.1107V14.9897H25.5878V17.8476C25.5878 18.1331 25.6579 18.3522 25.7982 18.5049C25.9451 18.6576 26.1522 18.7339 26.4194 18.7339C26.7133 18.7339 26.9637 18.6509 27.1708 18.485L27.4714 19.1721Z" fill="black"/>
<path d="M30.5678 14.1532C31.3026 14.1532 31.8636 14.3325 32.251 14.6909C32.6451 15.0494 32.8421 15.5838 32.8421 16.2942V19.4808H31.9304V18.7837C31.7701 19.0293 31.5397 19.2185 31.2391 19.3513C30.9452 19.4774 30.5946 19.5405 30.1871 19.5405C29.5927 19.5405 29.1151 19.3978 28.7544 19.1123C28.4004 18.8268 28.2234 18.4518 28.2234 17.9871C28.2234 17.5223 28.3937 17.1506 28.7344 16.8718C29.075 16.5863 29.616 16.4436 30.3574 16.4436H31.8803V16.2544C31.8803 15.8428 31.7601 15.5274 31.5196 15.3083C31.2792 15.0893 30.9252 14.9797 30.4576 14.9797C30.1437 14.9797 29.8365 15.0328 29.5359 15.1391C29.2353 15.2386 28.9815 15.3747 28.7745 15.5473L28.3737 14.8304C28.6475 14.6113 28.9748 14.4453 29.3555 14.3325C29.7363 14.213 30.1404 14.1532 30.5678 14.1532ZM30.3474 18.8036C30.7148 18.8036 31.0321 18.7239 31.2992 18.5646C31.5664 18.3987 31.7601 18.1663 31.8803 17.8676V17.1307H30.3975C29.5826 17.1307 29.1752 17.4029 29.1752 17.9472C29.1752 18.2128 29.2787 18.4219 29.4858 18.5746C29.6929 18.7273 29.9801 18.8036 30.3474 18.8036Z" fill="black"/>
<path d="M39.5714 14.203V19.4808H38.6597V18.6841C38.466 18.9563 38.2088 19.1687 37.8882 19.3214C37.5743 19.4675 37.2303 19.5405 36.8563 19.5405C36.1483 19.5405 35.5906 19.348 35.1831 18.9629C34.7757 18.5713 34.572 17.997 34.572 17.2402V14.203H35.5338V17.1307C35.5338 17.6418 35.6574 18.0302 35.9045 18.2958C36.1516 18.5547 36.5056 18.6841 36.9665 18.6841C37.4741 18.6841 37.8749 18.5314 38.1688 18.226C38.4627 17.9207 38.6096 17.4892 38.6096 16.9315V14.203H39.5714Z" fill="black"/>
<path d="M42.3242 15.0893C42.4912 14.7839 42.7383 14.5515 43.0656 14.3922C43.3929 14.2329 43.7903 14.1532 44.2578 14.1532V15.0793C44.2044 15.0727 44.1309 15.0694 44.0374 15.0694C43.5164 15.0694 43.1057 15.2254 42.8051 15.5374C42.5112 15.8428 42.3643 16.2809 42.3643 16.8518V19.4808H41.4025V14.203H42.3242V15.0893Z" fill="black"/>
<path d="M47.3672 14.1532C48.1019 14.1532 48.6629 14.3325 49.0503 14.6909C49.4444 15.0494 49.6415 15.5838 49.6415 16.2942V19.4808H48.7297V18.7837C48.5694 19.0293 48.339 19.2185 48.0384 19.3513C47.7445 19.4774 47.3939 19.5405 46.9864 19.5405C46.392 19.5405 45.9144 19.3978 45.5537 19.1123C45.1997 18.8268 45.0227 18.4518 45.0227 17.9871C45.0227 17.5223 45.1931 17.1506 45.5337 16.8718C45.8743 16.5863 46.4154 16.4436 47.1568 16.4436H48.6796V16.2544C48.6796 15.8428 48.5594 15.5274 48.319 15.3083C48.0785 15.0893 47.7245 14.9797 47.257 14.9797C46.943 14.9797 46.6358 15.0328 46.3352 15.1391C46.0346 15.2386 45.7808 15.3747 45.5738 15.5473L45.173 14.8304C45.4469 14.6113 45.7742 14.4453 46.1549 14.3325C46.5356 14.213 46.9397 14.1532 47.3672 14.1532ZM47.1467 18.8036C47.5141 18.8036 47.8314 18.7239 48.0985 18.5646C48.3657 18.3987 48.5594 18.1663 48.6796 17.8676V17.1307H47.1968C46.382 17.1307 45.9745 17.4029 45.9745 17.9472C45.9745 18.2128 46.0781 18.4219 46.2851 18.5746C46.4922 18.7273 46.7794 18.8036 47.1467 18.8036Z" fill="black"/>
<path d="M54.2567 14.1532C54.9313 14.1532 55.4657 14.3491 55.8598 14.7407C56.2605 15.1258 56.4609 15.6934 56.4609 16.4436V19.4808H55.4991V16.5531C55.4991 16.0419 55.3755 15.6569 55.1284 15.398C54.8813 15.1391 54.5273 15.0096 54.0664 15.0096C53.5454 15.0096 53.1346 15.1623 52.8341 15.4677C52.5335 15.7664 52.3832 16.1979 52.3832 16.7622V19.4808H51.4214V14.203H52.3431V14.9996C52.5368 14.7275 52.7973 14.5183 53.1246 14.3723C53.4586 14.2262 53.8359 14.1532 54.2567 14.1532Z" fill="black"/>
<path d="M61.2266 19.1721C61.0863 19.2916 60.9126 19.3845 60.7056 19.4509C60.4985 19.5106 60.2848 19.5405 60.0644 19.5405C59.53 19.5405 59.1159 19.3978 58.822 19.1123C58.5281 18.8268 58.3812 18.4186 58.3812 17.8875V14.9897H57.4795V14.203H58.3812V13.0479H59.343V14.203H60.8659V14.9897H59.343V17.8476C59.343 18.1331 59.4131 18.3522 59.5534 18.5049C59.7003 18.6576 59.9074 18.7339 60.1746 18.7339C60.4685 18.7339 60.7189 18.6509 60.926 18.485L61.2266 19.1721Z" fill="black"/>
<path d="M63.9123 19.5405C63.4781 19.5405 63.0606 19.4841 62.6599 19.3712C62.2591 19.2517 61.9452 19.1024 61.7181 18.9231L62.1189 18.1663C62.3526 18.3323 62.6365 18.465 62.9705 18.5646C63.3044 18.6642 63.6417 18.714 63.9824 18.714C64.824 18.714 65.2448 18.475 65.2448 17.997C65.2448 17.8377 65.188 17.7115 65.0745 17.6186C64.9609 17.5257 64.8173 17.4593 64.6436 17.4194C64.4767 17.373 64.2362 17.3232 63.9223 17.2701C63.4948 17.2037 63.1441 17.1273 62.8703 17.041C62.6031 16.9547 62.3727 16.8087 62.179 16.6029C61.9853 16.3971 61.8884 16.1083 61.8884 15.7365C61.8884 15.2586 62.0888 14.8768 62.4896 14.5914C62.8903 14.2993 63.428 14.1532 64.1026 14.1532C64.4566 14.1532 64.8106 14.1964 65.1646 14.2827C65.5186 14.369 65.8092 14.4851 66.0363 14.6312L65.6255 15.388C65.1913 15.1092 64.6804 14.9698 64.0926 14.9698C63.6852 14.9698 63.3746 15.0362 63.1608 15.1689C62.9471 15.3017 62.8402 15.4776 62.8402 15.6967C62.8402 15.8693 62.9003 16.0054 63.0206 16.105C63.1408 16.2046 63.2877 16.2776 63.4614 16.3241C63.6417 16.3705 63.8922 16.4236 64.2128 16.4834C64.6403 16.5564 64.9843 16.6361 65.2448 16.7224C65.5119 16.802 65.739 16.9415 65.9261 17.1406C66.1131 17.3398 66.2066 17.6186 66.2066 17.9771C66.2066 18.4551 65.9995 18.8368 65.5854 19.1223C65.178 19.4011 64.6203 19.5405 63.9123 19.5405Z" fill="black"/>
<path d="M70.0993 14.203H71.0611V19.4808H70.0993V14.203ZM70.5802 13.1873C70.3932 13.1873 70.2362 13.1275 70.1093 13.008C69.989 12.8885 69.9289 12.7425 69.9289 12.5699C69.9289 12.3973 69.989 12.2512 70.1093 12.1317C70.2362 12.0056 70.3932 11.9425 70.5802 11.9425C70.7672 11.9425 70.9208 12.0023 71.041 12.1218C71.1679 12.2346 71.2314 12.3774 71.2314 12.55C71.2314 12.7292 71.1679 12.8819 71.041 13.008C70.9208 13.1275 70.7672 13.1873 70.5802 13.1873Z" fill="black"/>
<path d="M75.7329 14.1532C76.4075 14.1532 76.9418 14.3491 77.3359 14.7407C77.7367 15.1258 77.937 15.6934 77.937 16.4436V19.4808H76.9752V16.5531C76.9752 16.0419 76.8516 15.6569 76.6045 15.398C76.3574 15.1391 76.0034 15.0096 75.5425 15.0096C75.0215 15.0096 74.6108 15.1623 74.3102 15.4677C74.0096 15.7664 73.8593 16.1979 73.8593 16.7622V19.4808H72.8975V14.203H73.8193V14.9996C74.013 14.7275 74.2734 14.5183 74.6007 14.3723C74.9347 14.2262 75.3121 14.1532 75.7329 14.1532Z" fill="black"/>
<path d="M85.3933 19.1721C85.2531 19.2916 85.0794 19.3845 84.8723 19.4509C84.6653 19.5106 84.4515 19.5405 84.2311 19.5405C83.6968 19.5405 83.2827 19.3978 82.9888 19.1123C82.6949 18.8268 82.5479 18.4186 82.5479 17.8875V14.9897H81.6462V14.203H82.5479V13.0479H83.5098V14.203H85.0326V14.9897H83.5098V17.8476C83.5098 18.1331 83.5799 18.3522 83.7202 18.5049C83.8671 18.6576 84.0742 18.7339 84.3413 18.7339C84.6352 18.7339 84.8857 18.6509 85.0928 18.485L85.3933 19.1721Z" fill="black"/>
<path d="M89.3915 14.1532C90.0661 14.1532 90.6004 14.3491 90.9945 14.7407C91.3953 15.1258 91.5957 15.6934 91.5957 16.4436V19.4808H90.6338V16.5531C90.6338 16.0419 90.5103 15.6569 90.2631 15.398C90.016 15.1391 89.662 15.0096 89.2011 15.0096C88.6802 15.0096 88.2694 15.1623 87.9688 15.4677C87.6682 15.7664 87.518 16.1979 87.518 16.7622V19.4808H86.5561V12.0919H87.518V14.9499C87.7183 14.6976 87.9788 14.5017 88.2994 14.3623C88.6267 14.2229 88.9907 14.1532 89.3915 14.1532Z" fill="black"/>
<path d="M98.2041 16.8718C98.2041 16.9448 98.1974 17.041 98.184 17.1605H93.8759C93.936 17.6252 94.1397 18.0003 94.4871 18.2858C94.8411 18.5646 95.2786 18.704 95.7995 18.704C96.4341 18.704 96.945 18.4916 97.3324 18.0667L97.8634 18.6841C97.623 18.9629 97.3224 19.1754 96.9617 19.3214C96.6077 19.4675 96.2103 19.5405 95.7695 19.5405C95.2084 19.5405 94.7108 19.4277 94.2767 19.2019C93.8425 18.9696 93.5052 18.6476 93.2648 18.236C93.031 17.8244 92.9141 17.3597 92.9141 16.8419C92.9141 16.3307 93.0276 15.8693 93.2547 15.4577C93.4885 15.0461 93.8058 14.7275 94.2065 14.5017C94.614 14.2694 95.0715 14.1532 95.5791 14.1532C96.0867 14.1532 96.5376 14.2694 96.9317 14.5017C97.3324 14.7275 97.643 15.0461 97.8634 15.4577C98.0905 15.8693 98.2041 16.3407 98.2041 16.8718ZM95.5791 14.9598C95.1182 14.9598 94.7309 15.0992 94.4169 15.3781C94.1097 15.6569 93.9293 16.022 93.8759 16.4734H97.2823C97.2289 16.0286 97.0452 15.6668 96.7313 15.388C96.424 15.1025 96.04 14.9598 95.5791 14.9598Z" fill="black"/>
<path d="M105.276 19.5604C104.341 19.5604 103.613 19.2949 103.092 18.7638C102.571 18.2327 102.31 17.4692 102.31 16.4734V12.5101H103.312V16.4336C103.312 17.9273 103.97 18.6742 105.286 18.6742C105.927 18.6742 106.418 18.4916 106.759 18.1265C107.099 17.7547 107.27 17.1904 107.27 16.4336V12.5101H108.242V16.4734C108.242 17.4759 107.981 18.2426 107.46 18.7737C106.939 19.2982 106.211 19.5604 105.276 19.5604Z" fill="black"/>
<path d="M112.58 16.3838L111.298 17.6784V19.4808H110.296V12.5101H111.298V16.4037L115.105 12.5101H116.247L113.251 15.6469L116.437 19.4808H115.265L112.58 16.3838Z" fill="black"/>
<path d="M117.587 19.5405C117.4 19.5405 117.24 19.4774 117.106 19.3513C116.972 19.2185 116.906 19.0526 116.906 18.8534C116.906 18.6609 116.972 18.5016 117.106 18.3754C117.24 18.2426 117.4 18.1763 117.587 18.1763C117.774 18.1763 117.931 18.2393 118.058 18.3655C118.185 18.4916 118.248 18.6542 118.248 18.8534C118.248 19.0526 118.181 19.2185 118.048 19.3513C117.921 19.4774 117.767 19.5405 117.587 19.5405Z" fill="black"/>
<path d="M0.911723 41.8323C0.65791 41.8323 0.440833 41.746 0.260492 41.5734C0.0868309 41.4008 0 41.1817 0 40.9161C0 40.6639 0.0901705 40.4514 0.270511 40.2788C0.450852 40.0996 0.664589 40.01 0.911723 40.01C1.15886 40.01 1.36925 40.0996 1.54292 40.2788C1.72326 40.4514 1.81343 40.6639 1.81343 40.9161C1.81343 41.1817 1.72326 41.4008 1.54292 41.5734C1.36925 41.746 1.15886 41.8323 0.911723 41.8323Z" fill="black"/>
<path d="M15.5116 36.6939V43.6646H14.69L10.4821 38.4665V43.6646H9.48018V36.6939H10.3017L14.5097 41.892V36.6939H15.5116Z" fill="black"/>
<path d="M19.7448 43.7243C19.2171 43.7243 18.7429 43.6081 18.3221 43.3758C17.9013 43.1434 17.5707 42.8248 17.3302 42.4198C17.0965 42.0082 16.9796 41.5435 16.9796 41.0257C16.9796 40.5079 17.0965 40.0465 17.3302 39.6415C17.5707 39.2299 17.9013 38.9113 18.3221 38.6855C18.7429 38.4532 19.2171 38.337 19.7448 38.337C20.2725 38.337 20.7434 38.4532 21.1575 38.6855C21.5783 38.9113 21.9056 39.2299 22.1393 39.6415C22.3798 40.0465 22.5 40.5079 22.5 41.0257C22.5 41.5435 22.3798 42.0082 22.1393 42.4198C21.9056 42.8248 21.5783 43.1434 21.1575 43.3758C20.7434 43.6081 20.2725 43.7243 19.7448 43.7243ZM19.7448 42.8878C20.0855 42.8878 20.3894 42.8115 20.6565 42.6588C20.9304 42.4995 21.1441 42.2804 21.2977 42.0016C21.4514 41.7161 21.5282 41.3908 21.5282 41.0257C21.5282 40.6606 21.4514 40.3386 21.2977 40.0597C21.1441 39.7743 20.9304 39.5552 20.6565 39.4025C20.3894 39.2498 20.0855 39.1735 19.7448 39.1735C19.4042 39.1735 19.0969 39.2498 18.8231 39.4025C18.5559 39.5552 18.3422 39.7743 18.1819 40.0597C18.0282 40.3386 17.9514 40.6606 17.9514 41.0257C17.9514 41.3908 18.0282 41.7161 18.1819 42.0016C18.3422 42.2804 18.5559 42.4995 18.8231 42.6588C19.0969 42.8115 19.4042 42.8878 19.7448 42.8878Z" fill="black"/>
<path d="M26.8158 43.3559C26.6756 43.4754 26.5019 43.5683 26.2948 43.6347C26.0878 43.6944 25.874 43.7243 25.6536 43.7243C25.1193 43.7243 24.7052 43.5816 24.4113 43.2961C24.1174 43.0106 23.9705 42.6024 23.9705 42.0713V39.1735H23.0687V38.3868H23.9705V37.2317H24.9323V38.3868H26.4551V39.1735H24.9323V42.0314C24.9323 42.3169 25.0024 42.536 25.1427 42.6887C25.2896 42.8414 25.4967 42.9177 25.7638 42.9177C26.0577 42.9177 26.3082 42.8347 26.5153 42.6688L26.8158 43.3559Z" fill="black"/>
<path d="M35.3682 38.3868L33.0438 43.6646H32.0619L29.7375 38.3868H30.7394L32.5629 42.619L34.4264 38.3868H35.3682Z" fill="black"/>
<path d="M38.0331 38.337C38.7678 38.337 39.3289 38.5163 39.7163 38.8747C40.1104 39.2332 40.3074 39.7676 40.3074 40.478V43.6646H39.3957V42.9675C39.2354 43.2131 39.005 43.4023 38.7044 43.5351C38.4105 43.6612 38.0598 43.7243 37.6524 43.7243C37.0579 43.7243 36.5804 43.5816 36.2197 43.2961C35.8657 43.0106 35.6887 42.6356 35.6887 42.1709C35.6887 41.7061 35.859 41.3344 36.1997 41.0556C36.5403 40.7701 37.0813 40.6274 37.8227 40.6274H39.3456V40.4382C39.3456 40.0266 39.2254 39.7112 38.9849 39.4921C38.7445 39.2731 38.3905 39.1635 37.9229 39.1635C37.609 39.1635 37.3017 39.2166 37.0012 39.3229C36.7006 39.4224 36.4468 39.5585 36.2397 39.7311L35.839 39.0142C36.1128 38.7951 36.4401 38.6291 36.8208 38.5163C37.2015 38.3968 37.6056 38.337 38.0331 38.337ZM37.8127 42.9874C38.1801 42.9874 38.4973 42.9077 38.7645 42.7484C39.0317 42.5825 39.2254 42.3501 39.3456 42.0514V41.3145H37.8628C37.0479 41.3145 36.6405 41.5866 36.6405 42.131C36.6405 42.3966 36.744 42.6057 36.9511 42.7584C37.1581 42.9111 37.4453 42.9874 37.8127 42.9874Z" fill="black"/>
<path d="M42.0873 36.2757H43.0492V43.6646H42.0873V36.2757Z" fill="black"/>
<path d="M44.8856 38.3868H45.8474V43.6646H44.8856V38.3868ZM45.3665 37.3711C45.1795 37.3711 45.0225 37.3113 44.8956 37.1918C44.7754 37.0723 44.7153 36.9263 44.7153 36.7537C44.7153 36.5811 44.7754 36.435 44.8956 36.3155C45.0225 36.1894 45.1795 36.1263 45.3665 36.1263C45.5535 36.1263 45.7071 36.1861 45.8274 36.3056C45.9543 36.4184 46.0177 36.5612 46.0177 36.7338C46.0177 36.913 45.9543 37.0657 45.8274 37.1918C45.7071 37.3113 45.5535 37.3711 45.3665 37.3711Z" fill="black"/>
<path d="M52.6933 36.2757V43.6646H51.7716V42.8281C51.5578 43.1202 51.2873 43.3426 50.96 43.4953C50.6328 43.648 50.2721 43.7243 49.878 43.7243C49.3637 43.7243 48.9028 43.6115 48.4954 43.3857C48.0879 43.16 47.7673 42.8447 47.5336 42.4397C47.3065 42.0281 47.1929 41.5568 47.1929 41.0257C47.1929 40.4946 47.3065 40.0266 47.5336 39.6216C47.7673 39.2166 48.0879 38.9013 48.4954 38.6756C48.9028 38.4499 49.3637 38.337 49.878 38.337C50.2587 38.337 50.6094 38.41 50.93 38.5561C51.2506 38.6955 51.5178 38.9046 51.7315 39.1834V36.2757H52.6933ZM49.9581 42.8878C50.2921 42.8878 50.596 42.8115 50.8699 42.6588C51.1437 42.4995 51.3575 42.2804 51.5111 42.0016C51.6647 41.7161 51.7415 41.3908 51.7415 41.0257C51.7415 40.6606 51.6647 40.3386 51.5111 40.0597C51.3575 39.7743 51.1437 39.5552 50.8699 39.4025C50.596 39.2498 50.2921 39.1735 49.9581 39.1735C49.6175 39.1735 49.3103 39.2498 49.0364 39.4025C48.7692 39.5552 48.5555 39.7743 48.3952 40.0597C48.2416 40.3386 48.1648 40.6606 48.1648 41.0257C48.1648 41.3908 48.2416 41.7161 48.3952 42.0016C48.5555 42.2804 48.7692 42.4995 49.0364 42.6588C49.3103 42.8115 49.6175 42.8878 49.9581 42.8878Z" fill="black"/>
<path d="M65.239 38.3868L63.2552 43.6646H62.3335L60.8006 39.6614L59.2477 43.6646H58.3259L56.3522 38.3868H57.2639L58.8068 42.5891L60.4099 38.3868H61.2214L62.7944 42.609L64.3774 38.3868H65.239Z" fill="black"/>
<path d="M66.215 38.3868H67.1768V43.6646H66.215V38.3868ZM66.6959 37.3711C66.5089 37.3711 66.3519 37.3113 66.225 37.1918C66.1048 37.0723 66.0446 36.9263 66.0446 36.7537C66.0446 36.5811 66.1048 36.435 66.225 36.3155C66.3519 36.1894 66.5089 36.1263 66.6959 36.1263C66.8829 36.1263 67.0365 36.1861 67.1567 36.3056C67.2837 36.4184 67.3471 36.5612 67.3471 36.7338C67.3471 36.913 67.2837 37.0657 67.1567 37.1918C67.0365 37.3113 66.8829 37.3711 66.6959 37.3711Z" fill="black"/>
<path d="M71.9989 43.3559C71.8586 43.4754 71.6849 43.5683 71.4779 43.6347C71.2708 43.6944 71.0571 43.7243 70.8367 43.7243C70.3023 43.7243 69.8882 43.5816 69.5943 43.2961C69.3004 43.0106 69.1535 42.6024 69.1535 42.0713V39.1735H68.2518V38.3868H69.1535V37.2317H70.1153V38.3868H71.6382V39.1735H70.1153V42.0314C70.1153 42.3169 70.1854 42.536 70.3257 42.6887C70.4726 42.8414 70.6797 42.9177 70.9469 42.9177C71.2408 42.9177 71.4912 42.8347 71.6983 42.6688L71.9989 43.3559Z" fill="black"/>
<path d="M75.997 38.337C76.6716 38.337 77.206 38.5328 77.6001 38.9245C78.0008 39.3096 78.2012 39.8772 78.2012 40.6274V43.6646H77.2394V40.7369C77.2394 40.2257 77.1158 39.8407 76.8687 39.5818C76.6216 39.3229 76.2676 39.1934 75.8067 39.1934C75.2857 39.1934 74.8749 39.3461 74.5744 39.6515C74.2738 39.9502 74.1235 40.3817 74.1235 40.946V43.6646H73.1617V36.2757H74.1235V39.1337C74.3239 38.8814 74.5844 38.6855 74.905 38.5461C75.2323 38.4067 75.5963 38.337 75.997 38.337Z" fill="black"/>
<path d="M84.6055 38.337C85.3402 38.337 85.9013 38.5163 86.2887 38.8747C86.6828 39.2332 86.8798 39.7676 86.8798 40.478V43.6646H85.9681V42.9675C85.8078 43.2131 85.5773 43.4023 85.2768 43.5351C84.9829 43.6612 84.6322 43.7243 84.2248 43.7243C83.6303 43.7243 83.1528 43.5816 82.7921 43.2961C82.4381 43.0106 82.2611 42.6356 82.2611 42.1709C82.2611 41.7061 82.4314 41.3344 82.772 41.0556C83.1127 40.7701 83.6537 40.6274 84.3951 40.6274H85.918V40.4382C85.918 40.0266 85.7978 39.7112 85.5573 39.4921C85.3168 39.2731 84.9628 39.1635 84.4953 39.1635C84.1814 39.1635 83.8741 39.2166 83.5735 39.3229C83.273 39.4224 83.0192 39.5585 82.8121 39.7311L82.4114 39.0142C82.6852 38.7951 83.0125 38.6291 83.3932 38.5163C83.7739 38.3968 84.178 38.337 84.6055 38.337ZM84.3851 42.9874C84.7524 42.9874 85.0697 42.9077 85.3369 42.7484C85.604 42.5825 85.7978 42.3501 85.918 42.0514V41.3145H84.4352C83.6203 41.3145 83.2129 41.5866 83.2129 42.131C83.2129 42.3966 83.3164 42.6057 83.5234 42.7584C83.7305 42.9111 84.0177 42.9874 84.3851 42.9874Z" fill="black"/>
<path d="M91.4951 38.337C92.1697 38.337 92.704 38.5328 93.0981 38.9245C93.4989 39.3096 93.6992 39.8772 93.6992 40.6274V43.6646H92.7374V40.7369C92.7374 40.2257 92.6139 39.8407 92.3667 39.5818C92.1196 39.3229 91.7656 39.1934 91.3047 39.1934C90.7837 39.1934 90.373 39.3461 90.0724 39.6515C89.7718 39.9502 89.6215 40.3817 89.6215 40.946V43.6646H88.6597V38.3868H89.5815V39.1834C89.7752 38.9113 90.0357 38.7021 90.3629 38.5561C90.6969 38.41 91.0743 38.337 91.4951 38.337Z" fill="black"/>
<path d="M100.08 38.3868L97.5054 44.1923C97.2783 44.7301 97.0111 45.1085 96.7039 45.3275C96.4033 45.5466 96.0393 45.6562 95.6118 45.6562C95.3513 45.6562 95.0975 45.613 94.8504 45.5267C94.6099 45.447 94.4096 45.3275 94.2493 45.1682L94.66 44.4512C94.9339 44.7102 95.2512 44.8396 95.6118 44.8396C95.8456 44.8396 96.0393 44.7765 96.1929 44.6504C96.3532 44.5309 96.4968 44.3218 96.6237 44.023L96.7941 43.6546L94.4496 38.3868H95.4515L97.305 42.609L99.1385 38.3868H100.08Z" fill="black"/>
<path d="M105.943 43.7243C105.415 43.7243 104.941 43.6081 104.52 43.3758C104.099 43.1434 103.769 42.8248 103.528 42.4198C103.295 42.0082 103.178 41.5435 103.178 41.0257C103.178 40.5079 103.295 40.0465 103.528 39.6415C103.769 39.2299 104.099 38.9113 104.52 38.6855C104.941 38.4532 105.415 38.337 105.943 38.337C106.471 38.337 106.941 38.4532 107.356 38.6855C107.776 38.9113 108.104 39.2299 108.337 39.6415C108.578 40.0465 108.698 40.5079 108.698 41.0257C108.698 41.5435 108.578 42.0082 108.337 42.4198C108.104 42.8248 107.776 43.1434 107.356 43.3758C106.941 43.6081 106.471 43.7243 105.943 43.7243ZM105.943 42.8878C106.283 42.8878 106.587 42.8115 106.855 42.6588C107.128 42.4995 107.342 42.2804 107.496 42.0016C107.649 41.7161 107.726 41.3908 107.726 41.0257C107.726 40.6606 107.649 40.3386 107.496 40.0597C107.342 39.7743 107.128 39.5552 106.855 39.4025C106.587 39.2498 106.283 39.1735 105.943 39.1735C105.602 39.1735 105.295 39.2498 105.021 39.4025C104.754 39.5552 104.54 39.7743 104.38 40.0597C104.226 40.3386 104.149 40.6606 104.149 41.0257C104.149 41.3908 104.226 41.7161 104.38 42.0016C104.54 42.2804 104.754 42.4995 105.021 42.6588C105.295 42.8115 105.602 42.8878 105.943 42.8878Z" fill="black"/>
<path d="M113.014 43.3559C112.874 43.4754 112.7 43.5683 112.493 43.6347C112.286 43.6944 112.072 43.7243 111.852 43.7243C111.317 43.7243 110.903 43.5816 110.609 43.2961C110.315 43.0106 110.168 42.6024 110.168 42.0713V39.1735H109.267V38.3868H110.168V37.2317H111.13V38.3868H112.653V39.1735H111.13V42.0314C111.13 42.3169 111.2 42.536 111.341 42.6887C111.488 42.8414 111.695 42.9177 111.962 42.9177C112.256 42.9177 112.506 42.8347 112.713 42.6688L113.014 43.3559Z" fill="black"/>
<path d="M117.012 38.337C117.687 38.337 118.221 38.5328 118.615 38.9245C119.016 39.3096 119.216 39.8772 119.216 40.6274V43.6646H118.254V40.7369C118.254 40.2257 118.131 39.8407 117.884 39.5818C117.637 39.3229 117.283 39.1934 116.822 39.1934C116.301 39.1934 115.89 39.3461 115.589 39.6515C115.289 39.9502 115.139 40.3817 115.139 40.946V43.6646H114.177V36.2757H115.139V39.1337C115.339 38.8814 115.599 38.6855 115.92 38.5461C116.247 38.4067 116.611 38.337 117.012 38.337Z" fill="black"/>
<path d="M125.825 41.0556C125.825 41.1286 125.818 41.2248 125.805 41.3443H121.496C121.557 41.809 121.76 42.1841 122.108 42.4696C122.462 42.7484 122.899 42.8878 123.42 42.8878C124.055 42.8878 124.566 42.6754 124.953 42.2505L125.484 42.8679C125.244 43.1467 124.943 43.3592 124.582 43.5052C124.228 43.6513 123.831 43.7243 123.39 43.7243C122.829 43.7243 122.331 43.6115 121.897 43.3857C121.463 43.1534 121.126 42.8314 120.885 42.4198C120.652 42.0082 120.535 41.5435 120.535 41.0257C120.535 40.5145 120.648 40.0531 120.875 39.6415C121.109 39.2299 121.426 38.9113 121.827 38.6855C122.235 38.4532 122.692 38.337 123.2 38.337C123.707 38.337 124.158 38.4532 124.552 38.6855C124.953 38.9113 125.264 39.2299 125.484 39.6415C125.711 40.0531 125.825 40.5245 125.825 41.0556ZM123.2 39.1436C122.739 39.1436 122.351 39.283 122.037 39.5618C121.73 39.8407 121.55 40.2058 121.496 40.6572H124.903C124.849 40.2124 124.666 39.8506 124.352 39.5718C124.045 39.2863 123.661 39.1436 123.2 39.1436Z" fill="black"/>
<path d="M128.082 39.2731C128.249 38.9677 128.496 38.7353 128.823 38.576C129.151 38.4167 129.548 38.337 130.016 38.337V39.2631C129.962 39.2565 129.889 39.2531 129.795 39.2531C129.274 39.2531 128.863 39.4092 128.563 39.7212C128.269 40.0266 128.122 40.4647 128.122 41.0356V43.6646H127.16V38.3868H128.082V39.2731Z" fill="black"/>
<path d="M14.3494 48.3676V55.7565H13.4276V54.92C13.2139 55.2121 12.9434 55.4345 12.6161 55.5872C12.2888 55.7399 11.9281 55.8162 11.5341 55.8162C11.0198 55.8162 10.5589 55.7033 10.1514 55.4776C9.74401 55.2519 9.4234 54.9366 9.18963 54.5316C8.96253 54.12 8.84899 53.6487 8.84899 53.1176C8.84899 52.5865 8.96253 52.1185 9.18963 51.7135C9.4234 51.3085 9.74401 50.9932 10.1514 50.7675C10.5589 50.5418 11.0198 50.4289 11.5341 50.4289C11.9148 50.4289 12.2654 50.5019 12.586 50.648C12.9067 50.7874 13.1738 50.9965 13.3876 51.2753V48.3676H14.3494ZM11.6142 54.9797C11.9482 54.9797 12.2521 54.9034 12.5259 54.7507C12.7998 54.5914 13.0135 54.3723 13.1671 54.0935C13.3208 53.808 13.3976 53.4827 13.3976 53.1176C13.3976 52.7524 13.3208 52.4305 13.1671 52.1516C13.0135 51.8662 12.7998 51.6471 12.5259 51.4944C12.2521 51.3417 11.9482 51.2654 11.6142 51.2654C11.2736 51.2654 10.9663 51.3417 10.6925 51.4944C10.4253 51.6471 10.2116 51.8662 10.0513 52.1516C9.89763 52.4305 9.82082 52.7524 9.82082 53.1176C9.82082 53.4827 9.89763 53.808 10.0513 54.0935C10.2116 54.3723 10.4253 54.5914 10.6925 54.7507C10.9663 54.9034 11.2736 54.9797 11.6142 54.9797Z" fill="black"/>
<path d="M16.1692 50.4787H17.131V55.7565H16.1692V50.4787ZM16.6501 49.463C16.4631 49.463 16.3062 49.4032 16.1792 49.2837C16.059 49.1642 15.9989 49.0182 15.9989 48.8456C15.9989 48.673 16.059 48.5269 16.1792 48.4074C16.3062 48.2813 16.4631 48.2182 16.6501 48.2182C16.8372 48.2182 16.9908 48.278 17.111 48.3975C17.2379 48.5103 17.3014 48.6531 17.3014 48.8257C17.3014 49.0049 17.2379 49.1576 17.111 49.2837C16.9908 49.4032 16.8372 49.463 16.6501 49.463Z" fill="black"/>
<path d="M20.4904 55.8162C20.0562 55.8162 19.6388 55.7598 19.238 55.6469C18.8372 55.5274 18.5233 55.3781 18.2962 55.1988L18.697 54.442C18.9307 54.608 19.2146 54.7407 19.5486 54.8403C19.8825 54.9399 20.2198 54.9897 20.5605 54.9897C21.4021 54.9897 21.8229 54.7507 21.8229 54.2727C21.8229 54.1134 21.7661 53.9872 21.6526 53.8943C21.539 53.8014 21.3954 53.735 21.2217 53.6951C21.0548 53.6487 20.8143 53.5989 20.5004 53.5458C20.0729 53.4794 19.7222 53.403 19.4484 53.3167C19.1812 53.2304 18.9508 53.0844 18.7571 52.8786C18.5634 52.6728 18.4665 52.384 18.4665 52.0122C18.4665 51.5342 18.6669 51.1525 19.0677 50.8671C19.4684 50.575 20.0061 50.4289 20.6807 50.4289C21.0347 50.4289 21.3887 50.4721 21.7427 50.5584C22.0967 50.6447 22.3873 50.7608 22.6144 50.9069L22.2036 51.6637C21.7694 51.3849 21.2585 51.2455 20.6707 51.2455C20.2633 51.2455 19.9527 51.3119 19.7389 51.4446C19.5252 51.5774 19.4183 51.7533 19.4183 51.9724C19.4183 52.145 19.4784 52.2811 19.5987 52.3807C19.7189 52.4803 19.8658 52.5533 20.0395 52.5998C20.2198 52.6462 20.4703 52.6993 20.7909 52.7591C21.2184 52.8321 21.5624 52.9118 21.8229 52.9981C22.09 53.0777 22.3171 53.2172 22.5042 53.4163C22.6912 53.6155 22.7847 53.8943 22.7847 54.2528C22.7847 54.7308 22.5776 55.1125 22.1635 55.398C21.7561 55.6768 21.1984 55.8162 20.4904 55.8162Z" fill="black"/>
<path d="M26.3011 55.8162C25.7601 55.8162 25.2758 55.7 24.8484 55.4677C24.4276 55.2353 24.0969 54.9167 23.8565 54.5117C23.616 54.1001 23.4958 53.6354 23.4958 53.1176C23.4958 52.5998 23.616 52.1384 23.8565 51.7334C24.0969 51.3218 24.4276 51.0032 24.8484 50.7774C25.2758 50.5451 25.7601 50.4289 26.3011 50.4289C26.782 50.4289 27.2095 50.5252 27.5835 50.7177C27.9642 50.9102 28.2581 51.189 28.4652 51.5542L27.7338 52.0222C27.5668 51.7699 27.3598 51.5807 27.1126 51.4546C26.8655 51.3285 26.5917 51.2654 26.2911 51.2654C25.9438 51.2654 25.6298 51.3417 25.3493 51.4944C25.0755 51.6471 24.8584 51.8662 24.6981 52.1516C24.5445 52.4305 24.4676 52.7524 24.4676 53.1176C24.4676 53.4893 24.5445 53.818 24.6981 54.1034C24.8584 54.3822 25.0755 54.598 25.3493 54.7507C25.6298 54.9034 25.9438 54.9797 26.2911 54.9797C26.5917 54.9797 26.8655 54.9167 27.1126 54.7905C27.3598 54.6644 27.5668 54.4752 27.7338 54.2229L28.4652 54.681C28.2581 55.0461 27.9642 55.3283 27.5835 55.5274C27.2095 55.7199 26.782 55.8162 26.3011 55.8162Z" fill="black"/>
<path d="M31.9065 55.8162C31.3788 55.8162 30.9046 55.7 30.4838 55.4677C30.063 55.2353 29.7324 54.9167 29.4919 54.5117C29.2581 54.1001 29.1412 53.6354 29.1412 53.1176C29.1412 52.5998 29.2581 52.1384 29.4919 51.7334C29.7324 51.3218 30.063 51.0032 30.4838 50.7774C30.9046 50.5451 31.3788 50.4289 31.9065 50.4289C32.4341 50.4289 32.905 50.5451 33.3191 50.7774C33.7399 51.0032 34.0672 51.3218 34.301 51.7334C34.5414 52.1384 34.6617 52.5998 34.6617 53.1176C34.6617 53.6354 34.5414 54.1001 34.301 54.5117C34.0672 54.9167 33.7399 55.2353 33.3191 55.4677C32.905 55.7 32.4341 55.8162 31.9065 55.8162ZM31.9065 54.9797C32.2471 54.9797 32.551 54.9034 32.8182 54.7507C33.092 54.5914 33.3058 54.3723 33.4594 54.0935C33.613 53.808 33.6898 53.4827 33.6898 53.1176C33.6898 52.7524 33.613 52.4305 33.4594 52.1516C33.3058 51.8662 33.092 51.6471 32.8182 51.4944C32.551 51.3417 32.2471 51.2654 31.9065 51.2654C31.5658 51.2654 31.2586 51.3417 30.9847 51.4944C30.7176 51.6471 30.5038 51.8662 30.3435 52.1516C30.1899 52.4305 30.1131 52.7524 30.1131 53.1176C30.1131 53.4827 30.1899 53.808 30.3435 54.0935C30.5038 54.3723 30.7176 54.5914 30.9847 54.7507C31.2586 54.9034 31.5658 54.9797 31.9065 54.9797Z" fill="black"/>
<path d="M40.9412 50.4787V55.7565H40.0295V54.9598C39.8358 55.232 39.5786 55.4444 39.258 55.5971C38.9441 55.7432 38.6001 55.8162 38.2261 55.8162C37.5181 55.8162 36.9603 55.6237 36.5529 55.2386C36.1455 54.847 35.9417 54.2727 35.9417 53.5159V50.4787H36.9036V53.4064C36.9036 53.9175 37.0271 54.3059 37.2743 54.5714C37.5214 54.8304 37.8754 54.9598 38.3363 54.9598C38.8439 54.9598 39.2447 54.8071 39.5385 54.5017C39.8324 54.1964 39.9794 53.7649 39.9794 53.2072V50.4787H40.9412Z" fill="black"/>
<path d="M45.6076 50.4289C46.2822 50.4289 46.8165 50.6247 47.2106 51.0164C47.6114 51.4015 47.8117 51.9691 47.8117 52.7193V55.7565H46.8499V52.8288C46.8499 52.3176 46.7264 51.9326 46.4792 51.6737C46.2321 51.4148 45.8781 51.2853 45.4172 51.2853C44.8962 51.2853 44.4855 51.438 44.1849 51.7434C43.8843 52.0421 43.7341 52.4736 43.7341 53.0379V55.7565H42.7722V50.4787H43.694V51.2753C43.8877 51.0032 44.1482 50.794 44.4754 50.648C44.8094 50.5019 45.1868 50.4289 45.6076 50.4289Z" fill="black"/>
<path d="M52.5774 55.4478C52.4371 55.5673 52.2635 55.6602 52.0564 55.7266C51.8494 55.7863 51.6356 55.8162 51.4152 55.8162C50.8809 55.8162 50.4667 55.6735 50.1729 55.388C49.879 55.1025 49.732 54.6943 49.732 54.1632V51.2654H48.8303V50.4787H49.732V49.3236H50.6938V50.4787H52.2167V51.2654H50.6938V54.1233C50.6938 54.4088 50.764 54.6279 50.9042 54.7806C51.0512 54.9333 51.2582 55.0096 51.5254 55.0096C51.8193 55.0096 52.0698 54.9266 52.2768 54.7607L52.5774 55.4478Z" fill="black"/>
<path d="M55.2631 55.8162C54.8289 55.8162 54.4115 55.7598 54.0107 55.6469C53.61 55.5274 53.296 55.3781 53.069 55.1988L53.4697 54.442C53.7035 54.608 53.9874 54.7407 54.3213 54.8403C54.6553 54.9399 54.9926 54.9897 55.3332 54.9897C56.1748 54.9897 56.5956 54.7507 56.5956 54.2727C56.5956 54.1134 56.5388 53.9872 56.4253 53.8943C56.3117 53.8014 56.1681 53.735 55.9945 53.6951C55.8275 53.6487 55.587 53.5989 55.2731 53.5458C54.8456 53.4794 54.495 53.403 54.2211 53.3167C53.954 53.2304 53.7235 53.0844 53.5298 52.8786C53.3361 52.6728 53.2393 52.384 53.2393 52.0122C53.2393 51.5342 53.4397 51.1525 53.8404 50.8671C54.2412 50.575 54.7789 50.4289 55.4535 50.4289C55.8075 50.4289 56.1615 50.4721 56.5155 50.5584C56.8695 50.6447 57.16 50.7608 57.3871 50.9069L56.9763 51.6637C56.5422 51.3849 56.0312 51.2455 55.4434 51.2455C55.036 51.2455 54.7254 51.3119 54.5117 51.4446C54.2979 51.5774 54.1911 51.7533 54.1911 51.9724C54.1911 52.145 54.2512 52.2811 54.3714 52.3807C54.4916 52.4803 54.6386 52.5533 54.8122 52.5998C54.9926 52.6462 55.2431 52.6993 55.5637 52.7591C55.9911 52.8321 56.3351 52.9118 56.5956 52.9981C56.8628 53.0777 57.0899 53.2172 57.2769 53.4163C57.4639 53.6155 57.5574 53.8943 57.5574 54.2528C57.5574 54.7308 57.3504 55.1125 56.9363 55.398C56.5288 55.6768 55.9711 55.8162 55.2631 55.8162Z" fill="black"/>
<path d="M63.3838 50.4289C64.1185 50.4289 64.6795 50.6082 65.0669 50.9666C65.461 51.3251 65.6581 51.8595 65.6581 52.5699V55.7565H64.7463V55.0594C64.586 55.305 64.3556 55.4942 64.055 55.627C63.7611 55.7531 63.4105 55.8162 63.003 55.8162C62.4086 55.8162 61.931 55.6735 61.5703 55.388C61.2163 55.1025 61.0393 54.7275 61.0393 54.2628C61.0393 53.798 61.2096 53.4263 61.5503 53.1475C61.8909 52.862 62.432 52.7193 63.1734 52.7193H64.6962V52.5301C64.6962 52.1185 64.576 51.8031 64.3356 51.584C64.0951 51.365 63.7411 51.2554 63.2735 51.2554C62.9596 51.2554 62.6524 51.3085 62.3518 51.4147C62.0512 51.5143 61.7974 51.6504 61.5904 51.823L61.1896 51.1061C61.4635 50.887 61.7907 50.721 62.1715 50.6082C62.5522 50.4887 62.9563 50.4289 63.3838 50.4289ZM63.1633 55.0793C63.5307 55.0793 63.848 54.9996 64.1151 54.8403C64.3823 54.6743 64.576 54.442 64.6962 54.1433V53.4064H63.2134C62.3986 53.4064 61.9911 53.6785 61.9911 54.2229C61.9911 54.4885 62.0946 54.6976 62.3017 54.8503C62.5088 55.003 62.796 55.0793 63.1633 55.0793Z" fill="black"/>
<path d="M70.2733 50.4289C70.9479 50.4289 71.4823 50.6247 71.8764 51.0164C72.2771 51.4015 72.4775 51.9691 72.4775 52.7193V55.7565H71.5157V52.8288C71.5157 52.3176 71.3921 51.9326 71.145 51.6737C70.8979 51.4148 70.5439 51.2853 70.083 51.2853C69.562 51.2853 69.1512 51.438 68.8506 51.7434C68.5501 52.0421 68.3998 52.4736 68.3998 53.0379V55.7565H67.438V50.4787H68.3597V51.2753C68.5534 51.0032 68.8139 50.794 69.1412 50.648C69.4752 50.5019 69.8525 50.4289 70.2733 50.4289Z" fill="black"/>
<path d="M79.2963 48.3676V55.7565H78.3746V54.92C78.1608 55.2121 77.8903 55.4345 77.563 55.5872C77.2358 55.7399 76.8751 55.8162 76.481 55.8162C75.9667 55.8162 75.5058 55.7033 75.0984 55.4776C74.6909 55.2519 74.3703 54.9366 74.1366 54.5316C73.9095 54.12 73.7959 53.6487 73.7959 53.1176C73.7959 52.5865 73.9095 52.1185 74.1366 51.7135C74.3703 51.3085 74.6909 50.9932 75.0984 50.7675C75.5058 50.5418 75.9667 50.4289 76.481 50.4289C76.8617 50.4289 77.2124 50.5019 77.533 50.648C77.8536 50.7874 78.1208 50.9965 78.3345 51.2753V48.3676H79.2963ZM76.5612 54.9797C76.8951 54.9797 77.199 54.9034 77.4729 54.7507C77.7467 54.5914 77.9605 54.3723 78.1141 54.0935C78.2677 53.808 78.3445 53.4827 78.3445 53.1176C78.3445 52.7524 78.2677 52.4305 78.1141 52.1516C77.9605 51.8662 77.7467 51.6471 77.4729 51.4944C77.199 51.3417 76.8951 51.2654 76.5612 51.2654C76.2205 51.2654 75.9133 51.3417 75.6394 51.4944C75.3722 51.6471 75.1585 51.8662 74.9982 52.1516C74.8446 52.4305 74.7678 52.7524 74.7678 53.1176C74.7678 53.4827 74.8446 53.808 74.9982 54.0935C75.1585 54.3723 75.3722 54.5914 75.6394 54.7507C75.9133 54.9034 76.2205 54.9797 76.5612 54.9797Z" fill="black"/>
<path d="M86.6221 50.4289C87.1364 50.4289 87.5973 50.5418 88.0047 50.7675C88.4122 50.9932 88.7294 51.3085 88.9565 51.7135C89.1903 52.1185 89.3072 52.5865 89.3072 53.1176C89.3072 53.6487 89.1903 54.12 88.9565 54.5316C88.7294 54.9366 88.4122 55.2519 88.0047 55.4776C87.5973 55.7033 87.1364 55.8162 86.6221 55.8162C86.2414 55.8162 85.8907 55.7432 85.5701 55.5971C85.2562 55.4511 84.989 55.2386 84.7686 54.9598V57.6883H83.8068V50.4787H84.7285V51.3152C84.9423 51.0231 85.2128 50.804 85.5401 50.6579C85.8674 50.5053 86.228 50.4289 86.6221 50.4289ZM86.542 54.9797C86.8826 54.9797 87.1865 54.9034 87.4537 54.7507C87.7275 54.5914 87.9413 54.3723 88.0949 54.0935C88.2552 53.808 88.3354 53.4827 88.3354 53.1176C88.3354 52.7524 88.2552 52.4305 88.0949 52.1516C87.9413 51.8662 87.7275 51.6471 87.4537 51.4944C87.1865 51.3417 86.8826 51.2654 86.542 51.2654C86.208 51.2654 85.9041 51.3451 85.6302 51.5044C85.3631 51.6571 85.1493 51.8728 84.989 52.1516C84.8354 52.4305 84.7586 52.7524 84.7586 53.1176C84.7586 53.4827 84.8354 53.808 84.989 54.0935C85.1427 54.3723 85.3564 54.5914 85.6302 54.7507C85.9041 54.9034 86.208 54.9797 86.542 54.9797Z" fill="black"/>
<path d="M91.5579 51.365C91.7248 51.0596 91.972 50.8272 92.2993 50.6679C92.6265 50.5086 93.024 50.4289 93.4915 50.4289V51.355C93.4381 51.3484 93.3646 51.345 93.2711 51.345C92.7501 51.345 92.3393 51.5011 92.0388 51.8131C91.7449 52.1185 91.5979 52.5566 91.5979 53.1275V55.7565H90.6361V50.4787H91.5579V51.365Z" fill="black"/>
<path d="M96.9023 55.8162C96.3747 55.8162 95.9004 55.7 95.4796 55.4677C95.0588 55.2353 94.7282 54.9167 94.4878 54.5117C94.254 54.1001 94.1371 53.6354 94.1371 53.1176C94.1371 52.5998 94.254 52.1384 94.4878 51.7334C94.7282 51.3218 95.0588 51.0032 95.4796 50.7774C95.9004 50.5451 96.3747 50.4289 96.9023 50.4289C97.43 50.4289 97.9009 50.5451 98.315 50.7774C98.7358 51.0032 99.0631 51.3218 99.2969 51.7334C99.5373 52.1384 99.6575 52.5998 99.6575 53.1176C99.6575 53.6354 99.5373 54.1001 99.2969 54.5117C99.0631 54.9167 98.7358 55.2353 98.315 55.4677C97.9009 55.7 97.43 55.8162 96.9023 55.8162ZM96.9023 54.9797C97.243 54.9797 97.5469 54.9034 97.814 54.7507C98.0879 54.5914 98.3016 54.3723 98.4553 54.0935C98.6089 53.808 98.6857 53.4827 98.6857 53.1176C98.6857 52.7524 98.6089 52.4305 98.4553 52.1516C98.3016 51.8662 98.0879 51.6471 97.814 51.4944C97.5469 51.3417 97.243 51.2654 96.9023 51.2654C96.5617 51.2654 96.2544 51.3417 95.9806 51.4944C95.7134 51.6471 95.4997 51.8662 95.3394 52.1516C95.1858 52.4305 95.1089 52.7524 95.1089 53.1176C95.1089 53.4827 95.1858 53.808 95.3394 54.0935C95.4997 54.3723 95.7134 54.5914 95.9806 54.7507C96.2544 54.9034 96.5617 54.9797 96.9023 54.9797Z" fill="black"/>
<path d="M107.63 50.4289C108.298 50.4289 108.826 50.6214 109.213 51.0065C109.607 51.3915 109.804 51.9624 109.804 52.7193V55.7565H108.843V52.8288C108.843 52.3176 108.722 51.9326 108.482 51.6737C108.248 51.4148 107.911 51.2853 107.47 51.2853C106.982 51.2853 106.595 51.438 106.308 51.7434C106.021 52.0421 105.877 52.4736 105.877 53.0379V55.7565H104.915V52.8288C104.915 52.3176 104.795 51.9326 104.554 51.6737C104.321 51.4148 103.983 51.2853 103.543 51.2853C103.055 51.2853 102.668 51.438 102.38 51.7434C102.093 52.0421 101.95 52.4736 101.95 53.0379V55.7565H100.988V50.4787H101.909V51.2654C102.103 50.9932 102.357 50.7874 102.671 50.648C102.985 50.5019 103.342 50.4289 103.743 50.4289C104.157 50.4289 104.524 50.5119 104.845 50.6779C105.166 50.8438 105.413 51.0861 105.586 51.4048C105.787 51.0994 106.064 50.8604 106.418 50.6878C106.779 50.5152 107.183 50.4289 107.63 50.4289Z" fill="black"/>
<path d="M113.878 55.8162C113.35 55.8162 112.876 55.7 112.455 55.4677C112.034 55.2353 111.704 54.9167 111.463 54.5117C111.229 54.1001 111.113 53.6354 111.113 53.1176C111.113 52.5998 111.229 52.1384 111.463 51.7334C111.704 51.3218 112.034 51.0032 112.455 50.7774C112.876 50.5451 113.35 50.4289 113.878 50.4289C114.405 50.4289 114.876 50.5451 115.29 50.7774C115.711 51.0032 116.039 51.3218 116.272 51.7334C116.513 52.1384 116.633 52.5998 116.633 53.1176C116.633 53.6354 116.513 54.1001 116.272 54.5117C116.039 54.9167 115.711 55.2353 115.29 55.4677C114.876 55.7 114.405 55.8162 113.878 55.8162ZM113.878 54.9797C114.218 54.9797 114.522 54.9034 114.789 54.7507C115.063 54.5914 115.277 54.3723 115.431 54.0935C115.584 53.808 115.661 53.4827 115.661 53.1176C115.661 52.7524 115.584 52.4305 115.431 52.1516C115.277 51.8662 115.063 51.6471 114.789 51.4944C114.522 51.3417 114.218 51.2654 113.878 51.2654C113.537 51.2654 113.23 51.3417 112.956 51.4944C112.689 51.6471 112.475 51.8662 112.315 52.1516C112.161 52.4305 112.084 52.7524 112.084 53.1176C112.084 53.4827 112.161 53.808 112.315 54.0935C112.475 54.3723 112.689 54.5914 112.956 54.7507C113.23 54.9034 113.537 54.9797 113.878 54.9797Z" fill="black"/>
<path d="M120.949 55.4478C120.809 55.5673 120.635 55.6602 120.428 55.7266C120.221 55.7863 120.007 55.8162 119.787 55.8162C119.252 55.8162 118.838 55.6735 118.544 55.388C118.25 55.1025 118.103 54.6943 118.103 54.1632V51.2654H117.202V50.4787H118.103V49.3236H119.065V50.4787H120.588V51.2654H119.065V54.1233C119.065 54.4088 119.135 54.6279 119.276 54.7806C119.423 54.9333 119.63 55.0096 119.897 55.0096C120.191 55.0096 120.441 54.9266 120.648 54.7607L120.949 55.4478Z" fill="black"/>
<path d="M122.112 50.4787H123.073V55.7565H122.112V50.4787ZM122.593 49.463C122.405 49.463 122.249 49.4032 122.122 49.2837C122.001 49.1642 121.941 49.0182 121.941 48.8456C121.941 48.673 122.001 48.5269 122.122 48.4074C122.249 48.2813 122.405 48.2182 122.593 48.2182C122.78 48.2182 122.933 48.278 123.053 48.3975C123.18 48.5103 123.244 48.6531 123.244 48.8257C123.244 49.0049 123.18 49.1576 123.053 49.2837C122.933 49.4032 122.78 49.463 122.593 49.463Z" fill="black"/>
<path d="M127.184 55.8162C126.656 55.8162 126.182 55.7 125.761 55.4677C125.341 55.2353 125.01 54.9167 124.77 54.5117C124.536 54.1001 124.419 53.6354 124.419 53.1176C124.419 52.5998 124.536 52.1384 124.77 51.7334C125.01 51.3218 125.341 51.0032 125.761 50.7774C126.182 50.5451 126.656 50.4289 127.184 50.4289C127.712 50.4289 128.183 50.5451 128.597 50.7774C129.018 51.0032 129.345 51.3218 129.579 51.7334C129.819 52.1384 129.939 52.5998 129.939 53.1176C129.939 53.6354 129.819 54.1001 129.579 54.5117C129.345 54.9167 129.018 55.2353 128.597 55.4677C128.183 55.7 127.712 55.8162 127.184 55.8162ZM127.184 54.9797C127.525 54.9797 127.829 54.9034 128.096 54.7507C128.37 54.5914 128.583 54.3723 128.737 54.0935C128.891 53.808 128.968 53.4827 128.968 53.1176C128.968 52.7524 128.891 52.4305 128.737 52.1516C128.583 51.8662 128.37 51.6471 128.096 51.4944C127.829 51.3417 127.525 51.2654 127.184 51.2654C126.844 51.2654 126.536 51.3417 126.262 51.4944C125.995 51.6471 125.782 51.8662 125.621 52.1516C125.468 52.4305 125.391 52.7524 125.391 53.1176C125.391 53.4827 125.468 53.808 125.621 54.0935C125.782 54.3723 125.995 54.5914 126.262 54.7507C126.536 54.9034 126.844 54.9797 127.184 54.9797Z" fill="black"/>
<path d="M134.105 50.4289C134.78 50.4289 135.314 50.6247 135.708 51.0164C136.109 51.4015 136.309 51.9691 136.309 52.7193V55.7565H135.347V52.8288C135.347 52.3176 135.224 51.9326 134.977 51.6737C134.729 51.4148 134.375 51.2853 133.915 51.2853C133.394 51.2853 132.983 51.438 132.682 51.7434C132.382 52.0421 132.231 52.4736 132.231 53.0379V55.7565H131.27V50.4787H132.191V51.2753C132.385 51.0032 132.645 50.794 132.973 50.648C133.307 50.5019 133.684 50.4289 134.105 50.4289Z" fill="black"/>
<path d="M139.612 55.8162C139.178 55.8162 138.76 55.7598 138.36 55.6469C137.959 55.5274 137.645 55.3781 137.418 55.1988L137.819 54.442C138.052 54.608 138.336 54.7407 138.67 54.8403C139.004 54.9399 139.341 54.9897 139.682 54.9897C140.524 54.9897 140.944 54.7507 140.944 54.2727C140.944 54.1134 140.888 53.9872 140.774 53.8943C140.661 53.8014 140.517 53.735 140.343 53.6951C140.176 53.6487 139.936 53.5989 139.622 53.5458C139.194 53.4794 138.844 53.403 138.57 53.3167C138.303 53.2304 138.072 53.0844 137.879 52.8786C137.685 52.6728 137.588 52.384 137.588 52.0122C137.588 51.5342 137.788 51.1525 138.189 50.8671C138.59 50.575 139.128 50.4289 139.802 50.4289C140.156 50.4289 140.51 50.4721 140.864 50.5584C141.218 50.6447 141.509 50.7608 141.736 50.9069L141.325 51.6637C140.891 51.3849 140.38 51.2455 139.792 51.2455C139.385 51.2455 139.074 51.3119 138.861 51.4446C138.647 51.5774 138.54 51.7533 138.54 51.9724C138.54 52.145 138.6 52.2811 138.72 52.3807C138.84 52.4803 138.987 52.5533 139.161 52.5998C139.341 52.6462 139.592 52.6993 139.913 52.7591C140.34 52.8321 140.684 52.9118 140.944 52.9981C141.212 53.0777 141.439 53.2172 141.626 53.4163C141.813 53.6155 141.906 53.8943 141.906 54.2528C141.906 54.7308 141.699 55.1125 141.285 55.398C140.878 55.6768 140.32 55.8162 139.612 55.8162Z" fill="black"/>
<path d="M143.339 55.8162C143.152 55.8162 142.991 55.7531 142.858 55.627C142.724 55.4942 142.657 55.3283 142.657 55.1291C142.657 54.9366 142.724 54.7772 142.858 54.6511C142.991 54.5183 143.152 54.452 143.339 54.452C143.526 54.452 143.683 54.515 143.81 54.6412C143.937 54.7673 144 54.9299 144 55.1291C144 55.3283 143.933 55.4942 143.8 55.627C143.673 55.7531 143.519 55.8162 143.339 55.8162Z" fill="black"/>
<path d="M0.911723 78.108C0.65791 78.108 0.440833 78.0217 0.260492 77.8491C0.0868309 77.6765 0 77.4574 0 77.1918C0 76.9396 0.0901705 76.7271 0.270511 76.5545C0.450852 76.3753 0.664589 76.2857 0.911723 76.2857C1.15886 76.2857 1.36925 76.3753 1.54292 76.5545C1.72326 76.7271 1.81343 76.9396 1.81343 77.1918C1.81343 77.4574 1.72326 77.6765 1.54292 77.8491C1.36925 78.0217 1.15886 78.108 0.911723 78.108Z" fill="black"/>
<path d="M15.5116 72.9696V79.9403H14.69L10.4821 74.7422V79.9403H9.48018V72.9696H10.3017L14.5097 78.1677V72.9696H15.5116Z" fill="black"/>
<path d="M19.7448 80C19.2171 80 18.7429 79.8838 18.3221 79.6515C17.9013 79.4191 17.5707 79.1005 17.3302 78.6955C17.0965 78.2839 16.9796 77.8192 16.9796 77.3014C16.9796 76.7836 17.0965 76.3222 17.3302 75.9172C17.5707 75.5056 17.9013 75.187 18.3221 74.9612C18.7429 74.7289 19.2171 74.6127 19.7448 74.6127C20.2725 74.6127 20.7434 74.7289 21.1575 74.9612C21.5783 75.187 21.9056 75.5056 22.1393 75.9172C22.3798 76.3222 22.5 76.7836 22.5 77.3014C22.5 77.8192 22.3798 78.2839 22.1393 78.6955C21.9056 79.1005 21.5783 79.4191 21.1575 79.6515C20.7434 79.8838 20.2725 80 19.7448 80ZM19.7448 79.1635C20.0855 79.1635 20.3894 79.0872 20.6565 78.9345C20.9304 78.7752 21.1441 78.5561 21.2977 78.2773C21.4514 77.9918 21.5282 77.6665 21.5282 77.3014C21.5282 76.9362 21.4514 76.6143 21.2977 76.3354C21.1441 76.05 20.9304 75.8309 20.6565 75.6782C20.3894 75.5255 20.0855 75.4492 19.7448 75.4492C19.4042 75.4492 19.0969 75.5255 18.8231 75.6782C18.5559 75.8309 18.3422 76.05 18.1819 76.3354C18.0282 76.6143 17.9514 76.9362 17.9514 77.3014C17.9514 77.6665 18.0282 77.9918 18.1819 78.2773C18.3422 78.5561 18.5559 78.7752 18.8231 78.9345C19.0969 79.0872 19.4042 79.1635 19.7448 79.1635Z" fill="black"/>
<path d="M28.8352 80C28.2942 80 27.8099 79.8838 27.3824 79.6515C26.9617 79.4191 26.631 79.1005 26.3906 78.6955C26.1501 78.2839 26.0299 77.8192 26.0299 77.3014C26.0299 76.7836 26.1501 76.3222 26.3906 75.9172C26.631 75.5056 26.9617 75.187 27.3824 74.9612C27.8099 74.7289 28.2942 74.6127 28.8352 74.6127C29.3161 74.6127 29.7436 74.709 30.1176 74.9015C30.4983 75.094 30.7922 75.3728 30.9993 75.738L30.2679 76.206C30.1009 75.9537 29.8939 75.7645 29.6467 75.6384C29.3996 75.5123 29.1257 75.4492 28.8252 75.4492C28.4778 75.4492 28.1639 75.5255 27.8834 75.6782C27.6095 75.8309 27.3925 76.05 27.2322 76.3354C27.0785 76.6143 27.0017 76.9362 27.0017 77.3014C27.0017 77.6731 27.0785 78.0018 27.2322 78.2872C27.3925 78.566 27.6095 78.7818 27.8834 78.9345C28.1639 79.0872 28.4778 79.1635 28.8252 79.1635C29.1257 79.1635 29.3996 79.1005 29.6467 78.9743C29.8939 78.8482 30.1009 78.659 30.2679 78.4067L30.9993 78.8648C30.7922 79.2299 30.4983 79.5121 30.1176 79.7112C29.7436 79.9037 29.3161 80 28.8352 80Z" fill="black"/>
<path d="M34.1782 74.6127C34.9129 74.6127 35.474 74.7919 35.8614 75.1504C36.2554 75.5089 36.4525 76.0433 36.4525 76.7537V79.9403H35.5408V79.2432C35.3805 79.4888 35.15 79.678 34.8494 79.8108C34.5556 79.9369 34.2049 80 33.7975 80C33.203 80 32.7254 79.8573 32.3647 79.5718C32.0107 79.2863 31.8337 78.9113 31.8337 78.4465C31.8337 77.9818 32.0041 77.6101 32.3447 77.3312C32.6854 77.0458 33.2264 76.9031 33.9678 76.9031H35.4907V76.7139C35.4907 76.3022 35.3704 75.9869 35.13 75.7678C34.8895 75.5488 34.5355 75.4392 34.068 75.4392C33.754 75.4392 33.4468 75.4923 33.1462 75.5985C32.8457 75.6981 32.5918 75.8342 32.3848 76.0068L31.984 75.2898C32.2579 75.0708 32.5852 74.9048 32.9659 74.792C33.3466 74.6725 33.7507 74.6127 34.1782 74.6127ZM33.9578 79.2631C34.3251 79.2631 34.6424 79.1834 34.9096 79.0241C35.1767 78.8581 35.3704 78.6258 35.4907 78.3271V77.5902H34.0079C33.193 77.5902 32.7855 77.8623 32.7855 78.4067C32.7855 78.6723 32.8891 78.8814 33.0961 79.0341C33.3032 79.1868 33.5904 79.2631 33.9578 79.2631Z" fill="black"/>
<path d="M39.7553 80C39.3211 80 38.9037 79.9436 38.5029 79.8307C38.1022 79.7112 37.7882 79.5619 37.5611 79.3826L37.9619 78.6258C38.1957 78.7918 38.4795 78.9245 38.8135 79.0241C39.1475 79.1237 39.4848 79.1735 39.8254 79.1735C40.667 79.1735 41.0878 78.9345 41.0878 78.4565C41.0878 78.2972 41.031 78.171 40.9175 78.0781C40.8039 77.9852 40.6603 77.9188 40.4867 77.8789C40.3197 77.8325 40.0792 77.7827 39.7653 77.7296C39.3378 77.6632 38.9872 77.5868 38.7133 77.5005C38.4461 77.4142 38.2157 77.2682 38.022 77.0624C37.8283 76.8566 37.7315 76.5678 37.7315 76.196C37.7315 75.718 37.9318 75.3363 38.3326 75.0509C38.7333 74.7588 39.271 74.6127 39.9456 74.6127C40.2996 74.6127 40.6536 74.6559 41.0076 74.7422C41.3616 74.8285 41.6522 74.9446 41.8793 75.0907L41.4685 75.8475C41.0344 75.5687 40.5234 75.4293 39.9356 75.4293C39.5282 75.4293 39.2176 75.4957 39.0039 75.6284C38.7901 75.7612 38.6833 75.9371 38.6833 76.1562C38.6833 76.3288 38.7434 76.4649 38.8636 76.5645C38.9838 76.6641 39.1308 76.7371 39.3044 76.7836C39.4848 76.83 39.7352 76.8831 40.0558 76.9429C40.4833 77.0159 40.8273 77.0956 41.0878 77.1819C41.355 77.2615 41.5821 77.401 41.7691 77.6001C41.9561 77.7993 42.0496 78.0781 42.0496 78.4366C42.0496 78.9146 41.8426 79.2963 41.4284 79.5818C41.021 79.8606 40.4633 80 39.7553 80Z" fill="black"/>
<path d="M46.087 74.6127C46.7616 74.6127 47.296 74.8085 47.69 75.2002C48.0908 75.5853 48.2912 76.1529 48.2912 76.9031V79.9403H47.3294V77.0126C47.3294 76.5014 47.2058 76.1164 46.9587 75.8575C46.7115 75.5985 46.3575 75.4691 45.8967 75.4691C45.3757 75.4691 44.9649 75.6218 44.6643 75.9272C44.3638 76.2259 44.2135 76.6574 44.2135 77.2217V79.9403H43.2517V72.5514H44.2135V75.4093C44.4138 75.1571 44.6743 74.9612 44.9949 74.8218C45.3222 74.6824 45.6862 74.6127 46.087 74.6127Z" fill="black"/>
<path d="M57.4607 74.6625L55.1363 79.9403H54.1544L51.8301 74.6625H52.8319L54.6554 78.8947L56.5189 74.6625H57.4607Z" fill="black"/>
<path d="M60.1256 74.6127C60.8604 74.6127 61.4214 74.7919 61.8088 75.1504C62.2029 75.5089 62.3999 76.0433 62.3999 76.7537V79.9403H61.4882V79.2432C61.3279 79.4888 61.0975 79.678 60.7969 79.8108C60.503 79.9369 60.1524 80 59.7449 80C59.1505 80 58.6729 79.8573 58.3122 79.5718C57.9582 79.2863 57.7812 78.9113 57.7812 78.4465C57.7812 77.9818 57.9515 77.6101 58.2922 77.3312C58.6328 77.0458 59.1738 76.9031 59.9152 76.9031H61.4381V76.7139C61.4381 76.3022 61.3179 75.9869 61.0774 75.7678C60.837 75.5488 60.483 75.4392 60.0154 75.4392C59.7015 75.4392 59.3943 75.4923 59.0937 75.5985C58.7931 75.6981 58.5393 75.8342 58.3323 76.0068L57.9315 75.2898C58.2054 75.0708 58.5326 74.9048 58.9134 74.792C59.2941 74.6725 59.6982 74.6127 60.1256 74.6127ZM59.9052 79.2631C60.2726 79.2631 60.5899 79.1834 60.857 79.0241C61.1242 78.8581 61.3179 78.6258 61.4381 78.3271V77.5902H59.9553C59.1404 77.5902 58.733 77.8623 58.733 78.4067C58.733 78.6723 58.8365 78.8814 59.0436 79.0341C59.2507 79.1868 59.5379 79.2631 59.9052 79.2631Z" fill="black"/>
<path d="M64.1799 72.5514H65.1417V79.9403H64.1799V72.5514Z" fill="black"/>
<path d="M71.9275 74.6625V79.9403H71.0158V79.1436C70.8221 79.4158 70.5649 79.6282 70.2443 79.7809C69.9304 79.927 69.5864 80 69.2123 80C68.5043 80 67.9466 79.8075 67.5392 79.4224C67.1318 79.0308 66.928 78.4565 66.928 77.6997V74.6625H67.8898V77.5902C67.8898 78.1013 68.0134 78.4897 68.2605 78.7552C68.5077 79.0142 68.8617 79.1436 69.3226 79.1436C69.8302 79.1436 70.2309 78.9909 70.5248 78.6855C70.8187 78.3802 70.9657 77.9486 70.9657 77.391V74.6625H71.9275Z" fill="black"/>
<path d="M78.5576 77.3312C78.5576 77.4043 78.5509 77.5005 78.5375 77.62H74.2294C74.2895 78.0847 74.4932 78.4598 74.8406 78.7453C75.1946 79.0241 75.6321 79.1635 76.153 79.1635C76.7876 79.1635 77.2985 78.9511 77.6859 78.5262L78.2169 79.1436C77.9765 79.4224 77.6759 79.6349 77.3152 79.7809C76.9612 79.927 76.5638 80 76.123 80C75.5619 80 75.0643 79.8871 74.6302 79.6614C74.196 79.4291 73.8587 79.1071 73.6183 78.6955C73.3845 78.2839 73.2676 77.8192 73.2676 77.3014C73.2676 76.7902 73.3811 76.3288 73.6082 75.9172C73.842 75.5056 74.1593 75.187 74.56 74.9612C74.9675 74.7289 75.425 74.6127 75.9326 74.6127C76.4402 74.6127 76.8911 74.7289 77.2852 74.9612C77.6859 75.187 77.9965 75.5056 78.2169 75.9172C78.444 76.3288 78.5576 76.8002 78.5576 77.3312ZM75.9326 75.4193C75.4717 75.4193 75.0844 75.5587 74.7704 75.8375C74.4632 76.1164 74.2828 76.4815 74.2294 76.9329H77.6358C77.5824 76.4881 77.3987 76.1263 77.0848 75.8475C76.7775 75.562 76.3935 75.4193 75.9326 75.4193Z" fill="black"/>
<path d="M80.1236 80C79.9366 80 79.7763 79.9369 79.6427 79.8108C79.5091 79.678 79.4423 79.5121 79.4423 79.3129C79.4423 79.1204 79.5091 78.961 79.6427 78.8349C79.7763 78.7021 79.9366 78.6357 80.1236 78.6357C80.3106 78.6357 80.4676 78.6988 80.5945 78.825C80.7214 78.9511 80.7848 79.1137 80.7848 79.3129C80.7848 79.5121 80.718 79.678 80.5845 79.8108C80.4576 79.9369 80.3039 80 80.1236 80Z" fill="black"/>
</svg>
