<svg width="23" height="18" viewBox="0 0 23 18" fill="none" xmlns="http://www.w3.org/2000/svg">
<path d="M21.5 7V7.75C21.9142 7.75 22.25 7.41421 22.25 7H21.5ZM1.5 6.5H0.75C0.75 6.91421 1.08579 7.25 1.5 7.25L1.5 6.5ZM1.5 11.5V10.75C1.08579 10.75 0.75 11.0858 0.75 11.5H1.5ZM21.5 12H22.25C22.25 11.5858 21.9142 11.25 21.5 11.25V12ZM10.5 1.75C10.5 1.33579 10.1642 1 9.75 1C9.33579 1 9 1.33579 9 1.75H10.5ZM9 2.95C9 3.36421 9.33579 3.7 9.75 3.7C10.1642 3.7 10.5 3.36421 10.5 2.95H9ZM10.5 15.05C10.5 14.6358 10.1642 14.3 9.75 14.3C9.33579 14.3 9 14.6358 9 15.05H10.5ZM9 16.25C9 16.6642 9.33579 17 9.75 17C10.1642 17 10.5 16.6642 10.5 16.25H9ZM10.5 7.04999C10.5 6.63577 10.1642 6.29999 9.75 6.29999C9.33579 6.29999 9 6.63577 9 7.04999H10.5ZM9 10.95C9 11.3642 9.33579 11.7 9.75 11.7C10.1642 11.7 10.5 11.3642 10.5 10.95H9ZM19.75 9.5C19.75 8.53421 20.5342 7.75 21.5 7.75V6.25C19.7058 6.25 18.25 7.70579 18.25 9.5H19.75ZM22.25 7V6H20.75V7H22.25ZM22.25 6C22.25 4.00536 22.0188 2.45818 21.0303 1.46967C20.0418 0.481164 18.4946 0.25 16.5 0.25V1.75C18.5054 1.75 19.4582 2.01884 19.9697 2.53033C20.4812 3.04182 20.75 3.99464 20.75 6H22.25ZM16.5 0.25H6.5V1.75H16.5V0.25ZM6.5 0.25C4.50536 0.25 2.95818 0.481164 1.96967 1.46967C0.981164 2.45818 0.75 4.00536 0.75 6H2.25C2.25 3.99464 2.51884 3.04182 3.03033 2.53033C3.54182 2.01884 4.49464 1.75 6.5 1.75V0.25ZM0.75 6V6.5H2.25V6H0.75ZM1.5 7.25C2.46579 7.25 3.25 8.03421 3.25 9H4.75C4.75 7.20579 3.29421 5.75 1.5 5.75V7.25ZM3.25 9C3.25 9.96579 2.46579 10.75 1.5 10.75V12.25C3.29421 12.25 4.75 10.7942 4.75 9H3.25ZM0.75 11.5V12H2.25V11.5H0.75ZM0.75 12C0.75 13.9946 0.981164 15.5418 1.96967 16.5303C2.95818 17.5188 4.50536 17.75 6.5 17.75V16.25C4.49464 16.25 3.54182 15.9812 3.03033 15.4697C2.51884 14.9582 2.25 14.0054 2.25 12H0.75ZM6.5 17.75H16.5V16.25H6.5V17.75ZM16.5 17.75C18.4946 17.75 20.0418 17.5188 21.0303 16.5303C22.0188 15.5418 22.25 13.9946 22.25 12H20.75C20.75 14.0054 20.4812 14.9582 19.9697 15.4697C19.4582 15.9812 18.5054 16.25 16.5 16.25V17.75ZM21.5 11.25C20.5342 11.25 19.75 10.4658 19.75 9.5H18.25C18.25 11.2942 19.7058 12.75 21.5 12.75V11.25ZM9 1.75V2.95H10.5V1.75H9ZM9 15.05V16.25H10.5V15.05H9ZM9 7.04999V10.95H10.5V7.04999H9Z" fill="black"/>
</svg>
