<svg width="86" height="86" viewBox="0 0 86 86" fill="none" xmlns="http://www.w3.org/2000/svg">
<g filter="url(#filter0_f_1_142)">
<path d="M43.3271 61.5754C53.6274 61.5754 61.9774 53.2254 61.9774 42.9251C61.9774 32.6248 53.6274 24.2748 43.3271 24.2748C33.0268 24.2748 24.6768 32.6248 24.6768 42.9251C24.6768 53.2254 33.0268 61.5754 43.3271 61.5754Z" fill="#41BEF1" fill-opacity="0.45"/>
</g>
<path d="M38.8087 54.6174C49.7487 54.6174 58.6174 45.7487 58.6174 34.8087C58.6174 23.8687 49.7487 15 38.8087 15C27.8687 15 19 23.8687 19 34.8087C19 45.7487 27.8687 54.6174 38.8087 54.6174Z" fill="url(#paint0_linear_1_142)"/>
<g filter="url(#filter1_f_1_142)">
<path d="M53.6579 35.8088C53.6579 44.0102 47.0094 50.6587 38.8081 50.6587C30.6067 50.6587 23.9583 44.0102 23.9583 35.8088C23.9583 27.6075 30.6067 20.959 38.8081 20.959C47.0094 20.959 53.6579 27.6075 53.6579 35.8088Z" stroke="url(#paint1_linear_1_142)" stroke-width="2"/>
</g>
<g filter="url(#filter2_f_1_142)">
<path d="M53.6579 35.8088C53.6579 44.0102 47.0094 50.6587 38.8081 50.6587C30.6067 50.6587 23.9583 44.0102 23.9583 35.8088C23.9583 27.6075 30.6067 20.959 38.8081 20.959C47.0094 20.959 53.6579 27.6075 53.6579 35.8088Z" stroke="url(#paint2_linear_1_142)" stroke-width="2"/>
</g>
<g filter="url(#filter3_d_1_142)">
<path d="M48.8401 31.0404C48.204 31.2948 47.5276 31.4756 46.8178 31.556C47.5678 31.114 48.1504 30.431 48.4584 29.614C48.4785 29.5604 48.4182 29.5135 48.3714 29.5403C47.6615 29.9354 46.8914 30.2234 46.0677 30.3841C45.3646 29.6475 44.3668 29.1854 43.2618 29.1854C41.139 29.1854 39.4179 30.8796 39.4179 32.969C39.4179 33.2637 39.4514 33.5516 39.5184 33.8329C36.3308 33.6722 33.5048 32.1788 31.6096 29.9019C31.603 29.8885 31.5829 29.8952 31.5762 29.9019C31.2547 30.4578 31.0739 31.0939 31.0739 31.777C31.0739 33.0628 31.7235 34.1945 32.7213 34.8842C32.7414 34.8976 32.728 34.9311 32.7079 34.9244C32.1186 34.8909 31.5695 34.7302 31.0806 34.4691C31.0672 34.4624 31.0471 34.4691 31.0538 34.4891C31.0605 34.6566 31.1208 35.3999 31.315 35.8754C31.7972 37.054 32.8418 37.958 34.141 38.2192C33.8195 38.3062 33.478 38.3531 33.1231 38.3531C32.8887 38.3531 32.661 38.333 32.4333 38.2861C32.4199 38.2861 32.4066 38.2995 32.4066 38.3129C32.9021 39.7795 34.2816 40.851 35.9223 40.9045C35.9424 40.9045 35.9558 40.9313 35.9357 40.9447C34.6298 41.9358 32.9892 42.5251 31.2078 42.5251C30.8998 42.5251 30.5918 42.505 30.2904 42.4716C31.9914 43.543 34.0137 44.1725 36.1835 44.1725C39.1769 44.1725 41.5944 43.1412 43.3891 41.5742C45.1972 39.9938 46.3758 37.8576 46.8646 35.6878C47.0387 34.9244 47.1258 34.1543 47.1258 33.4043C47.1258 33.2436 47.1191 33.0762 47.1124 32.9154C47.8089 32.4199 48.4183 31.8105 48.9138 31.1207C48.9473 31.0805 48.8937 31.0136 48.8401 31.0404Z" fill="#C9E7FF"/>
<path d="M33.3144 43.0165C34.4455 42.7329 35.4863 42.2262 36.3839 41.5461C36.5095 41.4527 36.6158 41.3147 36.666 41.1389C36.7184 40.9556 36.696 40.7802 36.6405 40.6412C36.5391 40.3876 36.2846 40.163 35.9418 40.1548C35.0348 40.1237 34.229 39.7072 33.6845 39.0697C33.9077 39.0429 34.1257 39.0003 34.337 38.9431L34.2888 37.4839C33.2443 37.2739 32.3996 36.5457 32.0092 35.5914C32.0089 35.5908 32.0087 35.5902 32.0084 35.5896C32.2126 35.6304 32.4219 35.6579 32.6354 35.6714C32.8111 35.6894 32.9837 35.6452 33.1251 35.5549C33.2922 35.4481 33.3873 35.2981 33.4345 35.1682C33.525 34.9193 33.5032 34.5099 33.1451 34.2655C32.3386 33.7068 31.8239 32.8002 31.8239 31.777C31.8239 31.6071 31.8378 31.4411 31.8646 31.2797C33.8439 33.2033 36.5173 34.4325 39.4806 34.5819L40.4797 34.6323L40.248 33.6592C40.1948 33.4359 40.1679 33.2063 40.1679 32.969C40.1679 31.305 41.542 29.9354 43.2618 29.9354C44.1539 29.9354 44.958 30.3078 45.5252 30.902L45.8086 31.1988L46.2114 31.1202C46.3041 31.1021 46.3962 31.0826 46.4877 31.0615L46.8586 32.1711C46.799 32.2164 46.7387 32.2609 46.6776 32.3043L46.3461 32.5402L46.3631 32.9467C46.3698 33.109 46.3758 33.2615 46.3758 33.4043C46.3758 34.0968 46.2953 34.811 46.1334 35.5211L46.133 35.523C45.6764 37.5494 44.575 39.5415 42.8955 41.0095C41.236 42.4583 38.9934 43.4225 36.1835 43.4225C35.1872 43.4225 34.2245 43.2802 33.3144 43.0165ZM32.2948 35.5012C32.2933 35.5002 32.2918 35.4991 32.2903 35.4981C32.2918 35.4991 32.2933 35.5001 32.2948 35.5012L32.2948 35.5012Z" stroke="url(#paint3_linear_1_142)" stroke-width="1.5"/>
</g>
<defs>
<filter id="filter0_f_1_142" x="0.676758" y="0.274765" width="85.3006" height="85.3006" filterUnits="userSpaceOnUse" color-interpolation-filters="sRGB">
<feFlood flood-opacity="0" result="BackgroundImageFix"/>
<feBlend mode="normal" in="SourceGraphic" in2="BackgroundImageFix" result="shape"/>
<feGaussianBlur stdDeviation="12" result="effect1_foregroundBlur_1_142"/>
</filter>
<filter id="filter1_f_1_142" x="13.9583" y="10.959" width="49.6996" height="49.6997" filterUnits="userSpaceOnUse" color-interpolation-filters="sRGB">
<feFlood flood-opacity="0" result="BackgroundImageFix"/>
<feBlend mode="normal" in="SourceGraphic" in2="BackgroundImageFix" result="shape"/>
<feGaussianBlur stdDeviation="4.5" result="effect1_foregroundBlur_1_142"/>
</filter>
<filter id="filter2_f_1_142" x="11.9583" y="8.959" width="53.6996" height="53.6997" filterUnits="userSpaceOnUse" color-interpolation-filters="sRGB">
<feFlood flood-opacity="0" result="BackgroundImageFix"/>
<feBlend mode="normal" in="SourceGraphic" in2="BackgroundImageFix" result="shape"/>
<feGaussianBlur stdDeviation="5.5" result="effect1_foregroundBlur_1_142"/>
</filter>
<filter id="filter3_d_1_142" x="27.2904" y="29.1854" width="24.6338" height="20.9871" filterUnits="userSpaceOnUse" color-interpolation-filters="sRGB">
<feFlood flood-opacity="0" result="BackgroundImageFix"/>
<feColorMatrix in="SourceAlpha" type="matrix" values="0 0 0 0 0 0 0 0 0 0 0 0 0 0 0 0 0 0 127 0" result="hardAlpha"/>
<feOffset dy="3"/>
<feGaussianBlur stdDeviation="1.5"/>
<feComposite in2="hardAlpha" operator="out"/>
<feColorMatrix type="matrix" values="0 0 0 0 0.10028 0 0 0 0 0.097309 0 0 0 0 0.245833 0 0 0 0.28 0"/>
<feBlend mode="normal" in2="BackgroundImageFix" result="effect1_dropShadow_1_142"/>
<feBlend mode="normal" in="SourceGraphic" in2="effect1_dropShadow_1_142" result="shape"/>
</filter>
<linearGradient id="paint0_linear_1_142" x1="31.6164" y1="55.9104" x2="45.4174" y2="15.3976" gradientUnits="userSpaceOnUse">
<stop stop-color="#21D7FF"/>
<stop offset="0.8518" stop-color="#1C84DB"/>
<stop offset="1" stop-color="#1C84E4"/>
</linearGradient>
<linearGradient id="paint1_linear_1_142" x1="48.9819" y1="16.9804" x2="22.9582" y2="48.2753" gradientUnits="userSpaceOnUse">
<stop stop-color="white"/>
<stop offset="1" stop-color="white" stop-opacity="0"/>
</linearGradient>
<linearGradient id="paint2_linear_1_142" x1="48.9819" y1="16.9804" x2="22.9582" y2="48.2753" gradientUnits="userSpaceOnUse">
<stop stop-color="white"/>
<stop offset="1" stop-color="white" stop-opacity="0"/>
</linearGradient>
<linearGradient id="paint3_linear_1_142" x1="39.6073" y1="31.8786" x2="47.6858" y2="40.1708" gradientUnits="userSpaceOnUse">
<stop stop-color="white"/>
<stop offset="1" stop-color="white" stop-opacity="0"/>
</linearGradient>
</defs>
</svg>
