<svg width="10" height="16" viewBox="0 0 10 16" fill="none" xmlns="http://www.w3.org/2000/svg">
<path d="M4.99449 8.97081C6.22086 8.97081 7.3389 8.89899 8.06774 8.79081C8.06958 8.78912 8.08777 8.78496 8.11842 8.77866L8.32727 8.73685C8.59391 8.68268 8.99447 8.59464 9.17386 8.50172C9.68423 8.23718 10 7.71991 10 7.16628V7.1181C9.98807 6.7572 9.67138 5.99902 9.66036 5.99902C9.12521 4.72359 7.46099 2.20907 6.35487 1.19817L6.31702 1.16079C6.23371 1.0793 6.03094 0.885248 5.89315 0.789087C5.63797 0.596363 5.3222 0.5 5.00643 0.5C4.65394 0.5 4.32623 0.608181 4.0582 0.812724C4.00955 0.860906 3.80393 1.0409 3.63319 1.20999C2.5638 2.19634 0.815128 4.77177 0.279971 6.11902C0.194603 6.32357 0.0128511 6.84083 0 7.1181C0 7.38264 0.0615017 7.63537 0.182669 7.87627C0.352488 8.17718 0.620525 8.41718 0.936295 8.5499C1.15476 8.63445 1.81109 8.76717 1.82302 8.76717C2.53993 8.89899 3.70571 8.97081 4.99449 8.97081ZM5.00037 15.5C5.69892 15.5 6.26528 14.9391 6.26528 14.2473L5.99266 11.1646C5.99266 10.6219 5.54838 10.1819 5.00037 10.1819C4.45144 10.1819 4.00808 10.6219 4.00808 11.1646L3.73545 14.2473C3.73545 14.9391 4.30182 15.5 5.00037 15.5Z" fill="#F9FCFF"/>
</svg>
