<svg width="23" height="22" viewBox="0 0 23 22" fill="none" xmlns="http://www.w3.org/2000/svg">
<path d="M8.5 21H14.5C19.5 21 21.5 19 21.5 14V8C21.5 3 19.5 1 14.5 1H8.5C3.5 1 1.5 3 1.5 8V14C1.5 19 3.5 21 8.5 21Z" stroke="#131117" stroke-width="1.5" stroke-linecap="round" stroke-linejoin="round"/>
<path d="M15 17.5C16.1 17.5 17 16.6 17 15.5V6.5C17 5.4 16.1 4.5 15 4.5C13.9 4.5 13 5.4 13 6.5V15.5C13 16.6 13.89 17.5 15 17.5Z" stroke="#131117" stroke-width="1.5" stroke-linecap="round" stroke-linejoin="round"/>
<path d="M8 17.5C9.1 17.5 10 16.6 10 15.5V12C10 10.9 9.1 10 8 10C6.9 10 6 10.9 6 12V15.5C6 16.6 6.89 17.5 8 17.5Z" stroke="#131117" stroke-width="1.5" stroke-linecap="round" stroke-linejoin="round"/>
</svg>
